<svg id="Layer_1" data-name="Layer 1" xmlns="http://www.w3.org/2000/svg" xmlns:xlink="http://www.w3.org/1999/xlink" viewBox="0 0 1784 542"><defs><style>.cls-1{fill:url(#linear-gradient);}.cls-2{fill:url(#linear-gradient-2);}.cls-3{fill:url(#linear-gradient-3);}.cls-4{fill:url(#linear-gradient-4);}.cls-5,.cls-8{fill:#021522;}.cls-6{fill:#f29415;}.cls-7{fill:#363636;}.cls-8{stroke:#007aff;stroke-linejoin:round;stroke-width:0.01px;}</style><linearGradient id="linear-gradient" x1="-226.4" y1="139.62" x2="-236.69" y2="219.88" gradientTransform="matrix(1, 0, 0, -1, 483.92, 544.34)" gradientUnits="userSpaceOnUse"><stop offset="0" stop-color="#e51e27"/><stop offset="1" stop-color="#f29415"/></linearGradient><linearGradient id="linear-gradient-2" x1="-361.58" y1="355.42" x2="-303.1" y2="432.23" xlink:href="#linear-gradient"/><linearGradient id="linear-gradient-3" x1="-165.46" y1="389.14" x2="-110.18" y2="294.18" xlink:href="#linear-gradient"/><linearGradient id="linear-gradient-4" x1="-72.46" y1="223.68" x2="-164.05" y2="163.79" xlink:href="#linear-gradient"/></defs><title>digital-deyar-web-Artboard 1-logo</title><path class="cls-1" d="M55.65,81.06l294.15.19c46.93,0,85.34,38.4,85.34,85.34V376.05c0,46.93-38.41,85.4-85.34,85.34l-72.23-.08V395.13h52.61a37.84,37.84,0,0,0,15.82-4c13.11-6.54,22.88-21.73,22.88-36.61V261.18c0-16.55-10.66-25.61-20.43-34.22l-5.81-5.3c-7.77-7.84-22.74-20.14-30.95-28.06L277.08,162c-3.48-2.79-3.36-3.3-8.15-6.84a39.81,39.81,0,0,0-21.73-7.58H243A40,40,0,0,0,221,155.34c-4.82,3.61-7.86,6.94-11.55,10.22l-50.06,45.2a31.91,31.91,0,0,1-3.83,3.44l-11.65,10.58a38.6,38.6,0,0,1-3.74,3.53c-1.58,1.2-2.28,2.19-3.76,3.5-3.52,3.13-2.17,1.33-5.36,5.28-4.67,5.79-9.73,14.23-9.73,23.63V356c0,9.71,5.36,20.18,11.72,27,5.74,6.15,17.71,12.21,27,12.21H212.6v66.08L56,461.43l-.27-79.26V81.06Z"/><path class="cls-2" d="M55.65,81.06l297.48.19c-56,0-101.28,45.29-149.49,89.46L55,306.62Z"/><path class="cls-3" d="M435.14,371.38c0-56-29.9-84.9-74.07-133.1l-1.45-.64-.32-.36h0l-.09-.08-.08-.09-.17-.17-.17-.19v0l-.15-.17-.16-.16,0-.05-.12-.14-.17-.19-.17-.17,0,0-.13-.14-.27-.3,0,0-.05,0-.16-.17-.17-.17-.05-.06-.12-.13-.17-.17-.15-.15,0,0-.17-.17-.17-.17-.06-.08-.11-.11-.17-.16-.17-.17-.16-.17-.17-.17-.11-.11-.08-.06-.17-.17-.17-.17,0,0-.15-.15-.17-.17-.13-.1-.06-.06-.19-.17-.17-.17,0,0-.13-.13-.17-.17-.14-.13-.05,0-.16-.17-.17-.17-.07-.06-.1-.1-.19-.17-.17-.15h0l-.36-.32-.09-.08-.08-.09-.17-.17-.17-.17,0,0-.17-.14-.19-.17-.1-.11-.07-.06-.17-.17-.19-.17,0,0-.15-.13-.19-.17-.12-.12,0-.05-.17-.14-.19-.15-.07,0-.12-.11-.19-.17-.36-.31-.19-.15-.09-.07-.1-.08-.19-.15-.17-.15-5.81-5.3c-7.77-7.83-22.74-20.14-30.95-28.06L277.12,161.9c-3.48-2.78-3.36-3.29-8.15-6.84a39.86,39.86,0,0,0-21.72-7.58h-4.19A40,40,0,0,0,221,155.27c-4.81,3.62-7.85,6.95-11.55,10.22l-5.38,4.86-.28-.13,16.28-14.92c47.59-43.65,76.35-73.33,131-74.07a85.58,85.58,0,0,1,84.05,85.32V371.38Z"/><path class="cls-4" d="M277.57,395.13h50.27a38.11,38.11,0,0,0,25.5-8.86l2-1.74c8.17-7.72,13.57-19,13.57-30V261.16c0-10.09-4-17.4-9.27-23.52l1.46.64c44.17,48.2,74.07,77.06,74.07,133.1v4.67a85.6,85.6,0,0,1-85.34,85.34H277.54V395.13Z"/><path class="cls-5" d="M567,130.32h25.72a56.7,56.7,0,0,1,24.15,5.2,59.54,59.54,0,0,1,19.34,14.24,67.39,67.39,0,0,1,12.87,21.31,73.62,73.62,0,0,1,4.71,26.6q0,34-19.74,52T577.2,267.77H544V153.69Q544,130.32,567,130.32Zm3.53,24.55v88.36h15.32A43.41,43.41,0,0,0,602.92,240,35.88,35.88,0,0,0,616,230.66,42.83,42.83,0,0,0,624.33,216a58.53,58.53,0,0,0,2.94-19.14,50.09,50.09,0,0,0-2.85-17.38,36.75,36.75,0,0,0-8.24-13.26,36.36,36.36,0,0,0-13.06-8.44A47.36,47.36,0,0,0,586,154.87Z"/><path class="cls-5" d="M696.22,165.64a21.36,21.36,0,0,0-8.18,1.58,22.46,22.46,0,0,0-6.8,4.35,19.55,19.55,0,0,0-4.62,6.67,21.42,21.42,0,0,0-1.65,8.44v81.1h25.54V166a18.91,18.91,0,0,0-2.18-.26C697.55,165.7,696.87,165.64,696.22,165.64Z"/><path class="cls-6" d="M687.38,129.35c-5,0-8.6,1.74-10.76,5.27a24.18,24.18,0,0,0-3.23,12.81,51.39,51.39,0,0,0,.92,9.3,94.27,94.27,0,0,0,2.25,9.5,8.29,8.29,0,0,1,3.43-4.09,32,32,0,0,1,8.18-3.17c1.83-.52,5.34-1.85,5.34-1.85a34.86,34.86,0,0,0,4.76-2.77,13.32,13.32,0,0,0,3.29-3.89,11.27,11.27,0,0,0,1.32-5.61,16.27,16.27,0,0,0-4-10.69Q694.84,129.36,687.38,129.35Z"/><path class="cls-5" d="M801.25,166.25v7.38c-12.7-10.18-29.32-9.54-33-9.54A44.31,44.31,0,0,0,751,167.63a44.93,44.93,0,0,0-15,10.31,51,51,0,0,0-10.51,16.3,61.54,61.54,0,0,0,.1,43.49,52.23,52.23,0,0,0,10.6,16.4,46.12,46.12,0,0,0,15.12,10.4,44.41,44.41,0,0,0,17.58,3.64,43.64,43.64,0,0,0,17.87-3.34,49.41,49.41,0,0,0,14.53-10.41,42.65,42.65,0,0,1-1.38,10.8,23.82,23.82,0,0,1-4.81,9.43,24.14,24.14,0,0,1-9,6.58,35.16,35.16,0,0,1-14,2.45,71.16,71.16,0,0,1-10.7-.88,72.13,72.13,0,0,1-11.49-2.75,51.69,51.69,0,0,1-10.7-4.91,26.42,26.42,0,0,1-8-7.17,27.73,27.73,0,0,0-1.08,4.91,35.84,35.84,0,0,0-.3,4.52,25.88,25.88,0,0,0,3.44,13.45,28.41,28.41,0,0,0,9.52,9.62,45.58,45.58,0,0,0,14.43,5.69A82.92,82.92,0,0,0,775.33,308q25.33,0,38.39-15t13.06-41.34V166.25Zm0,41.63A70.67,70.67,0,0,1,800,221.34a37.17,37.17,0,0,1-4.32,11.78,23.59,23.59,0,0,1-8.15,8.34q-5.1,3.15-13,3.14a27.91,27.91,0,0,1-12.07-2.45,26.22,26.22,0,0,1-8.64-6.38,25.5,25.5,0,0,1-5.11-9,33.33,33.33,0,0,1-1.67-10.4,32.44,32.44,0,0,1,1.77-10.51,28,28,0,0,1,5.2-9.23,25.76,25.76,0,0,1,8.55-6.48,27.42,27.42,0,0,1,12-2.45,45.41,45.41,0,0,1,5.79.39,25.76,25.76,0,0,1,11.2,4.22c1.43,1,6,4.17,9.72,11.89Z"/><path class="cls-5" d="M871.14,165.64a21.1,21.1,0,0,0-8.12,1.58,22.41,22.41,0,0,0-6.79,4.35,19.28,19.28,0,0,0-4.62,6.67,21.42,21.42,0,0,0-1.65,8.44v81.1h25.53V166a18.72,18.72,0,0,0-2.17-.26C872.53,165.7,871.79,165.64,871.14,165.64Z"/><path class="cls-6" d="M862.3,129.35c-5,0-8.53,1.74-10.69,5.27a24.19,24.19,0,0,0-3.24,12.81,52.09,52.09,0,0,0,.86,9.3,97.36,97.36,0,0,0,2.31,9.5,8.4,8.4,0,0,1,3.43-4.09,31.43,31.43,0,0,1,8.12-3.17,52.26,52.26,0,0,0,5.41-1.85,18.09,18.09,0,0,0,4.68-2.77,13.45,13.45,0,0,0,3.37-3.89,11.27,11.27,0,0,0,1.25-5.61,16.27,16.27,0,0,0-4-10.69Q869.75,129.36,862.3,129.35Z"/><path class="cls-5" d="M910,166.25v-5.49a19.47,19.47,0,0,1,1.77-8.45,20.17,20.17,0,0,1,4.71-6.38,20,20,0,0,1,6.88-4,24.62,24.62,0,0,1,8.24-1.38h2a10,10,0,0,1,2,.2v25.52h22.78a42.71,42.71,0,0,1-.69,7.57,18.62,18.62,0,0,1-2.65,6.87,14.83,14.83,0,0,1-5.3,4.91,17.68,17.68,0,0,1-8.64,1.86h-5.5v52.23a6.08,6.08,0,0,0,2.16,4.82,7.57,7.57,0,0,0,5.11,1.86,22.69,22.69,0,0,0,6.57-1,8.54,8.54,0,0,0,4.82-3.34,17.88,17.88,0,0,1,1.17,6.28,20.49,20.49,0,0,1-1.47,7.76,18.67,18.67,0,0,1-4.42,6.48,21.42,21.42,0,0,1-7.26,4.52,27.18,27.18,0,0,1-9.82,1.67,25,25,0,0,1-8.15-1.38,21.35,21.35,0,0,1-7.17-4.12,21.13,21.13,0,0,1-5.1-6.88,22.09,22.09,0,0,1-2-9.62v-59.3H897.47V166.25Z"/><path class="cls-5" d="M1019.6,163.51q13,0,20.72,6t7.76,17.76a15.15,15.15,0,0,1-1.77,7.86,16.19,16.19,0,0,0-9.33-6.58,41,41,0,0,0-10.9-1.67,27.45,27.45,0,0,0-12.37,2.65,27.74,27.74,0,0,0-8.93,7,28.71,28.71,0,0,0-5.4,9.92,37.22,37.22,0,0,0-1.77,11.29,35.81,35.81,0,0,0,1.67,10.8,28.2,28.2,0,0,0,5,9.43,24.14,24.14,0,0,0,8.44,6.58,27,27,0,0,0,11.78,2.45q8.06,0,13.36-3.54a25.31,25.31,0,0,0,8.34-9.13,41.85,41.85,0,0,0,4.32-12.66,78.42,78.42,0,0,0,1.28-13.94V166.06h25.52V267.77h-25.52V256.58A45.93,45.93,0,0,1,1036.39,267a45.13,45.13,0,0,1-34.56-.2,44.68,44.68,0,0,1-15.12-10.31A51.76,51.76,0,0,1,976.11,240a56.83,56.83,0,0,1-4-21.9A60.3,60.3,0,0,1,976,195.9a54.67,54.67,0,0,1,10.61-17.27,47.46,47.46,0,0,1,15.21-11.2A42.06,42.06,0,0,1,1019.6,163.51Z"/><path class="cls-5" d="M1098.93,150.35a20,20,0,0,1,1.58-7.86,20.31,20.31,0,0,1,4.41-6.57,20,20,0,0,1,6.78-4.42,22.46,22.46,0,0,1,8.44-1.57c.66,0,1.34,0,2.06.1s1.48.16,2.26.29V267.77h-25.53Z"/><path class="cls-5" d="M1218.13,130.32h25.72a56.7,56.7,0,0,1,24.15,5.2,59.54,59.54,0,0,1,19.34,14.24,67.39,67.39,0,0,1,12.87,21.31,73.62,73.62,0,0,1,4.71,26.6q0,34-19.74,52t-56.84,18.06h-33.19V153.69Q1195.15,130.32,1218.13,130.32Zm3.53,24.55v88.36H1237a43.41,43.41,0,0,0,17.08-3.24,35.88,35.88,0,0,0,13.06-9.33,42.83,42.83,0,0,0,8.35-14.63,58.53,58.53,0,0,0,2.94-19.14,50.09,50.09,0,0,0-2.85-17.38,36.75,36.75,0,0,0-8.24-13.26,36.36,36.36,0,0,0-13.06-8.44,47.36,47.36,0,0,0-17.09-2.94Z"/><path class="cls-5" d="M1374.82,164.49a58.65,58.65,0,0,1,17.48,2.45,41.33,41.33,0,0,1,13.45,6.88,30.07,30.07,0,0,1,11.69,24.24,32.68,32.68,0,0,1-3,13.85,33.35,33.35,0,0,1-8.25,11.09,38.85,38.85,0,0,1-12.47,7.37,44.83,44.83,0,0,1-15.61,2.65q-12.57,0-20.22-5.6a17.66,17.66,0,0,1-7.66-15,22.64,22.64,0,0,1,1.77-8.64,35.08,35.08,0,0,0,10.11,6.28,27.77,27.77,0,0,0,10.31,2.16q10,0,16.39-3.34t6.39-9.62q0-3.93-4.32-7.36t-14.14-3.44q-14.93,0-23.27,7.37t-8.35,20.91q0,13.16,7.66,20.81t19.64,7.66a59.08,59.08,0,0,0,12.57-1.37c4.18-.92,9.72-2.23,16.2.47s9.72,10.33,9.72,10.33q-14.14,15.31-37.31,15.31a59.14,59.14,0,0,1-21.9-3.92,50.57,50.57,0,0,1-17.08-11,49.13,49.13,0,0,1-11.1-16.79,56,56,0,0,1-3.92-21.11,54.5,54.5,0,0,1,4.12-21.5A48,48,0,0,1,1335.26,179a52.55,52.55,0,0,1,17.47-10.7A61.75,61.75,0,0,1,1374.82,164.49Z"/><path class="cls-5" d="M1586.7,163.51q13,0,20.72,6t7.75,17.76a15.25,15.25,0,0,1-1.76,7.86,16.19,16.19,0,0,0-9.33-6.58,41.12,41.12,0,0,0-10.9-1.67,27.42,27.42,0,0,0-12.37,2.65,27.89,27.89,0,0,0-8.94,7,28.53,28.53,0,0,0-5.39,9.92,37.22,37.22,0,0,0-1.77,11.29,35.5,35.5,0,0,0,1.67,10.8,28.36,28.36,0,0,0,5,9.43,24.18,24.18,0,0,0,8.45,6.58,27,27,0,0,0,11.78,2.45q8.06,0,13.35-3.54a25.25,25.25,0,0,0,8.35-9.13,41.85,41.85,0,0,0,4.32-12.66,78.39,78.39,0,0,0,1.27-13.94V166.06h25.53V267.77H1618.9V256.58A46,46,0,0,1,1603.49,267a45.13,45.13,0,0,1-34.56-.2,44.49,44.49,0,0,1-15.12-10.31,51.59,51.59,0,0,1-10.6-16.49,56.65,56.65,0,0,1-4-21.9,60.3,60.3,0,0,1,3.93-22.19,54.83,54.83,0,0,1,10.6-17.27,47.39,47.39,0,0,1,15.22-11.2A42,42,0,0,1,1586.7,163.51Z"/><path class="cls-5" d="M1664.07,267.77V166.25h25.33v8.25a23.22,23.22,0,0,1,7.75-8.15,19.62,19.62,0,0,1,10.71-3q7.65,0,12.46,3.73a19,19,0,0,1,6.58,8.74,18.69,18.69,0,0,1,.69,10.21,13.59,13.59,0,0,1-5.2,8.34,10,10,0,0,0-4.62-5.3,14.7,14.7,0,0,0-7.16-1.77,20.9,20.9,0,0,0-7.27,1.38,21.65,21.65,0,0,0-6.78,4,20.7,20.7,0,0,0-7,16v59.1Z"/><path class="cls-7" d="M553.72,347.37h18.47a36.31,36.31,0,0,1,10.34,1.52,27.61,27.61,0,0,1,9.34,4.79,24.32,24.32,0,0,1,6.77,8.36,26.77,26.77,0,0,1,2.58,12.23,26,26,0,0,1-2.58,12,25,25,0,0,1-6.77,8.36,29.09,29.09,0,0,1-9.34,4.94,34.17,34.17,0,0,1-10.34,1.63H553.72Zm7.52,47.2h9.43a28.69,28.69,0,0,0,9-1.37,20.8,20.8,0,0,0,7.14-3.95,17.59,17.59,0,0,0,4.67-6.39,21,21,0,0,0,1.68-8.59,21.6,21.6,0,0,0-1.68-8.81,17.27,17.27,0,0,0-4.67-6.35,20.67,20.67,0,0,0-7.14-3.88,29.59,29.59,0,0,0-9-1.33h-9.43Z"/><path class="cls-7" d="M611.82,372.91c0-1,0-2.21-.08-3.73s-.13-2.86-.23-4h6.77c.1.92.17,2,.22,3.16s.08,2.16.08,2.92h.23a12.49,12.49,0,0,1,4.45-5.13,11.65,11.65,0,0,1,6.57-1.94,11.19,11.19,0,0,1,2.81.31l-.3,6.61a13.64,13.64,0,0,0-3.27-.38,9.93,9.93,0,0,0-4.48.95,9.2,9.2,0,0,0-3.16,2.55,10.56,10.56,0,0,0-1.86,3.68,15.5,15.5,0,0,0-.61,4.38v18.92h-7.14Z"/><path class="cls-7" d="M647.19,401.18H640v-36h7.15Zm1.21-49a4.26,4.26,0,0,1-1.4,3.26,4.85,4.85,0,0,1-3.39,1.3,4.64,4.64,0,0,1-3.34-1.33,4.36,4.36,0,0,1-1.37-3.23,4.44,4.44,0,0,1,1.37-3.31,4.6,4.6,0,0,1,3.34-1.33,4.75,4.75,0,0,1,3.39,1.33A4.4,4.4,0,0,1,648.4,352.16Z"/><path class="cls-7" d="M677.24,401.18h-7.76l-14.67-36h7.91l10.56,28.36h.16l10.64-28.36h7.6Z"/><path class="cls-7" d="M706.45,401.18H699.3v-36h7.15Zm1.22-49a4.23,4.23,0,0,1-1.41,3.26,4.85,4.85,0,0,1-3.38,1.3,4.65,4.65,0,0,1-3.35-1.33,4.36,4.36,0,0,1-1.37-3.23,4.44,4.44,0,0,1,1.37-3.31,4.61,4.61,0,0,1,3.35-1.33,4.74,4.74,0,0,1,3.38,1.33A4.37,4.37,0,0,1,707.67,352.16Z"/><path class="cls-7" d="M726,365.15c.1.92.18,1.94.23,3.08s.07,2.09.07,2.85h.23a10.86,10.86,0,0,1,1.86-2.7,13.81,13.81,0,0,1,2.7-2.2,13.69,13.69,0,0,1,7.15-2,14.08,14.08,0,0,1,6,1.18,12.17,12.17,0,0,1,4.18,3.16,12.67,12.67,0,0,1,2.47,4.63,19.56,19.56,0,0,1,.8,5.71v22.34h-7.14v-20a24.3,24.3,0,0,0-.35-4.18,9.91,9.91,0,0,0-1.25-3.5,6.81,6.81,0,0,0-2.51-2.43,8.16,8.16,0,0,0-4.1-.91,8.67,8.67,0,0,0-7,3.23,13,13,0,0,0-2.7,8.63v19.15h-7.14V372.91c0-1,0-2.21-.08-3.73s-.12-2.86-.23-4Z"/><path class="cls-7" d="M767.23,407.34a18,18,0,0,0,13.15,5.85,15.55,15.55,0,0,0,6-1,10.14,10.14,0,0,0,3.91-2.82,10.79,10.79,0,0,0,2.13-4.22,20.33,20.33,0,0,0,.65-5.24v-4.64h-.15a12.67,12.67,0,0,1-5.4,4.64,17.1,17.1,0,0,1-7.3,1.6,18.81,18.81,0,0,1-7.49-1.45,16.81,16.81,0,0,1-5.73-4,17.61,17.61,0,0,1-3.65-5.89,20.25,20.25,0,0,1-1.3-7.26,20.54,20.54,0,0,1,1.3-7.3,17.83,17.83,0,0,1,3.65-6,17.08,17.08,0,0,1,5.7-4,18.15,18.15,0,0,1,7.45-1.49,17.08,17.08,0,0,1,7.41,1.68,12.7,12.7,0,0,1,5.58,5.09h.16v-5.78h6.91v34.21a28.5,28.5,0,0,1-1,7.56,16.32,16.32,0,0,1-3.34,6.39,16.66,16.66,0,0,1-6.16,4.44,23.28,23.28,0,0,1-9.42,1.68,27.62,27.62,0,0,1-9.47-1.72,24.09,24.09,0,0,1-8.17-4.82Zm2.21-24.55a14.21,14.21,0,0,0,.8,4.79,11.88,11.88,0,0,0,2.35,4,12.12,12.12,0,0,0,3.76,2.81,11.42,11.42,0,0,0,5,1.06,12.46,12.46,0,0,0,5-1,11.28,11.28,0,0,0,3.87-2.7,12.14,12.14,0,0,0,2.48-4,14.09,14.09,0,0,0,.87-5,13.53,13.53,0,0,0-.87-4.87,12.44,12.44,0,0,0-2.51-4,12.16,12.16,0,0,0-3.88-2.77,11.91,11.91,0,0,0-13.76,2.74,11.37,11.37,0,0,0-2.35,4A14.78,14.78,0,0,0,769.44,382.79Z"/><path class="cls-7" d="M840.64,401.18h-7.53V347.37h17.25a33.2,33.2,0,0,1,7.38.79,18.55,18.55,0,0,1,6.12,2.55,12.49,12.49,0,0,1,4.14,4.6,14.66,14.66,0,0,1,1.52,6.95,13,13,0,0,1-3.65,9.58,17,17,0,0,1-9.42,4.64l15,24.7h-9.13l-13.68-23.94h-8.05Zm0-30.25h8.66a24.76,24.76,0,0,0,4.94-.46,12.2,12.2,0,0,0,4-1.48,8.24,8.24,0,0,0,2.7-10.79,7.55,7.55,0,0,0-2.62-2.62,11.51,11.51,0,0,0-3.84-1.41,24.79,24.79,0,0,0-4.64-.42h-9.19Z"/><path class="cls-7" d="M905.5,380a13.7,13.7,0,0,0-.72-4,9.33,9.33,0,0,0-1.9-3.23,9,9,0,0,0-3.12-2.16,11.07,11.07,0,0,0-4.37-.8,11.65,11.65,0,0,0-4.3.8,11.16,11.16,0,0,0-3.49,2.16,11.43,11.43,0,0,0-2.43,3.23,10.26,10.26,0,0,0-1.11,4Zm7.22,2.88v1.22a10,10,0,0,1-.08,1.22H884.06a10.82,10.82,0,0,0,1,4.29,11.23,11.23,0,0,0,2.55,3.5,11.79,11.79,0,0,0,3.68,2.32,12.9,12.9,0,0,0,10.76-.76,13,13,0,0,0,4.18-3.88l5,4a17.87,17.87,0,0,1-6.81,5.58,21.91,21.91,0,0,1-16.3.42,17.25,17.25,0,0,1-10-9.8,20.2,20.2,0,0,1-1.44-7.76,20.61,20.61,0,0,1,1.4-7.71,17.53,17.53,0,0,1,3.92-6,17.84,17.84,0,0,1,5.93-3.92,20.22,20.22,0,0,1,14.55-.11,14.7,14.7,0,0,1,5.47,3.72,16.72,16.72,0,0,1,3.46,5.89A23.45,23.45,0,0,1,912.72,382.86Z"/><path class="cls-7" d="M942.77,374.27a9.42,9.42,0,0,0-3.42-3.23,9.88,9.88,0,0,0-4.94-1.25,11.17,11.17,0,0,0-2.43.27,6.86,6.86,0,0,0-2.17.83,4.59,4.59,0,0,0-1.52,1.45,3.86,3.86,0,0,0-.57,2.16,3.59,3.59,0,0,0,2,3.38,25,25,0,0,0,6.16,2,38.68,38.68,0,0,1,4.79,1.44,15.27,15.27,0,0,1,3.84,2.09,9,9,0,0,1,2.54,3,8.7,8.7,0,0,1,.91,4.1,11.05,11.05,0,0,1-1.21,5.4,10.59,10.59,0,0,1-3.23,3.61,13.18,13.18,0,0,1-4.6,2,22.9,22.9,0,0,1-5.32.61,20.94,20.94,0,0,1-8-1.6,15.62,15.62,0,0,1-6.5-4.86l5.09-4.33a11.75,11.75,0,0,0,4,3.57,11.16,11.16,0,0,0,5.59,1.44,13.08,13.08,0,0,0,2.62-.26,7.36,7.36,0,0,0,2.28-.88,4.63,4.63,0,0,0,1.64-1.59,4.78,4.78,0,0,0,.61-2.51,4,4,0,0,0-2.4-3.73,32.28,32.28,0,0,0-7-2.28c-1.22-.3-2.45-.67-3.69-1.1a12.26,12.26,0,0,1-3.38-1.78,8.94,8.94,0,0,1-2.47-2.85,8.66,8.66,0,0,1-1-4.22,9.92,9.92,0,0,1,1.18-5,10,10,0,0,1,3.08-3.42,13.4,13.4,0,0,1,4.33-2,19.47,19.47,0,0,1,5-.65,19,19,0,0,1,7.48,1.53,12.39,12.39,0,0,1,5.59,4.4Z"/><path class="cls-7" d="M983.08,401.18c-.1-.91-.18-1.94-.23-3.08s-.07-2.09-.07-2.85h-.16a11.79,11.79,0,0,1-4.59,4.91,13.35,13.35,0,0,1-7.19,2,14.7,14.7,0,0,1-6-1.14,11.15,11.15,0,0,1-4.18-3.15,13.55,13.55,0,0,1-2.43-4.68,19.44,19.44,0,0,1-.8-5.7V365.15h7.14v19.92a25,25,0,0,0,.35,4.22,9.86,9.86,0,0,0,1.25,3.53,6.73,6.73,0,0,0,2.51,2.43,8.16,8.16,0,0,0,4.1.92,8.65,8.65,0,0,0,7-3.23,13.19,13.19,0,0,0,2.66-8.63V365.15h7.14v28.28c0,1,0,2.2.08,3.72s.12,2.87.23,4Z"/><path class="cls-7" d="M1009.86,401.18h-7.14V343.72h7.14Z"/><path class="cls-7" d="M1040.6,371H1031v18.77c0,2.18.4,3.74,1.21,4.68a4.91,4.91,0,0,0,3.88,1.4,10.32,10.32,0,0,0,2.13-.23,8.23,8.23,0,0,0,2-.68l.23,5.85a16,16,0,0,1-2.85.72,18.94,18.94,0,0,1-3.23.27c-3.4,0-6-.94-7.79-2.81s-2.7-4.69-2.7-8.44V371H1017v-5.86H1024V354.82H1031v10.33h9.58Z"/><path class="cls-7" d="M1068.06,374.27a9.42,9.42,0,0,0-3.42-3.23,9.88,9.88,0,0,0-4.94-1.25,11.17,11.17,0,0,0-2.43.27,7,7,0,0,0-2.17.83,4.59,4.59,0,0,0-1.52,1.45,3.86,3.86,0,0,0-.57,2.16,3.61,3.61,0,0,0,2,3.38,25,25,0,0,0,6.16,2,38.68,38.68,0,0,1,4.79,1.44,15.27,15.27,0,0,1,3.84,2.09,8.91,8.91,0,0,1,2.54,3,8.7,8.7,0,0,1,.92,4.1,11.05,11.05,0,0,1-1.22,5.4,10.59,10.59,0,0,1-3.23,3.61,13.1,13.1,0,0,1-4.6,2,22.9,22.9,0,0,1-5.32.61,20.94,20.94,0,0,1-8-1.6,15.62,15.62,0,0,1-6.5-4.86l5.09-4.33a11.7,11.7,0,0,0,4,3.57,11.13,11.13,0,0,0,5.58,1.44,13.08,13.08,0,0,0,2.62-.26,7.36,7.36,0,0,0,2.28-.88,4.63,4.63,0,0,0,1.64-1.59,4.78,4.78,0,0,0,.61-2.51,4,4,0,0,0-2.4-3.73,32.09,32.09,0,0,0-7-2.28c-1.21-.3-2.44-.67-3.68-1.1a12.32,12.32,0,0,1-3.39-1.78,9.07,9.07,0,0,1-2.47-2.85,8.66,8.66,0,0,1-1-4.22,10,10,0,0,1,1.18-5,10.15,10.15,0,0,1,3.08-3.42,13.5,13.5,0,0,1,4.33-2,19.52,19.52,0,0,1,5-.65,19,19,0,0,1,7.49,1.53,12.42,12.42,0,0,1,5.58,4.4Z"/><path class="cls-7" d="M1085.49,411.29h-6.08l5.25-19h7.14Z"/><path class="cls-7" d="M1121.12,347.37h18.47a36.31,36.31,0,0,1,10.34,1.52,27.75,27.75,0,0,1,9.35,4.79A24.41,24.41,0,0,1,1166,362a26.77,26.77,0,0,1,2.58,12.23,26,26,0,0,1-2.58,12,25.08,25.08,0,0,1-6.76,8.36,29.25,29.25,0,0,1-9.35,4.94,34.17,34.17,0,0,1-10.34,1.63h-18.47Zm7.52,47.2h9.43a28.69,28.69,0,0,0,9-1.37,20.8,20.8,0,0,0,7.14-3.95,17.73,17.73,0,0,0,4.68-6.39,21.16,21.16,0,0,0,1.67-8.59,21.77,21.77,0,0,0-1.67-8.81,17.41,17.41,0,0,0-4.68-6.35,20.67,20.67,0,0,0-7.14-3.88,29.59,29.59,0,0,0-9-1.33h-9.43Z"/><path class="cls-7" d="M1205.59,380a13.7,13.7,0,0,0-.72-4,9.17,9.17,0,0,0-1.9-3.23,9,9,0,0,0-3.12-2.16,11.07,11.07,0,0,0-4.37-.8,11.56,11.56,0,0,0-4.29.8,11.1,11.1,0,0,0-3.5,2.16,11.43,11.43,0,0,0-2.43,3.23,10.42,10.42,0,0,0-1.1,4Zm7.22,2.88v1.22a10,10,0,0,1-.07,1.22h-28.58a10.81,10.81,0,0,0,1,4.29,11.39,11.39,0,0,0,2.55,3.5,11.72,11.72,0,0,0,3.69,2.32,12.88,12.88,0,0,0,10.75-.76,13,13,0,0,0,4.18-3.88l5,4a17.84,17.84,0,0,1-6.8,5.58,21.94,21.94,0,0,1-16.31.42,17.46,17.46,0,0,1-6-3.84,17.71,17.71,0,0,1-4-6,20.2,20.2,0,0,1-1.44-7.76,20.61,20.61,0,0,1,1.41-7.71,17.5,17.5,0,0,1,3.91-6,17.84,17.84,0,0,1,5.93-3.92,20.24,20.24,0,0,1,14.56-.11,14.86,14.86,0,0,1,5.47,3.72,16.87,16.87,0,0,1,3.46,5.89A23.46,23.46,0,0,1,1212.81,382.86Z"/><path class="cls-7" d="M1240.35,371H1232v30.17h-7.14V371h-7.15v-5.86h7.15v-7.52a22.79,22.79,0,0,1,.72-5.89,12.17,12.17,0,0,1,2.36-4.68,11.27,11.27,0,0,1,4.18-3.11,15.07,15.07,0,0,1,6.19-1.14,16.61,16.61,0,0,1,4.49.53l-.84,6.15c-.56-.15-1.11-.27-1.67-.38a10.85,10.85,0,0,0-1.9-.15,6.63,6.63,0,0,0-3.31.72,5.23,5.23,0,0,0-1.94,1.94,8.06,8.06,0,0,0-.91,2.78,22.53,22.53,0,0,0-.23,3.23v7.52h8.36Zm14.22,30.17h-7.15v-36h7.15Zm1.21-49a4.22,4.22,0,0,1-1.4,3.26,4.85,4.85,0,0,1-3.38,1.3,4.65,4.65,0,0,1-3.35-1.33,4.36,4.36,0,0,1-1.37-3.23,4.44,4.44,0,0,1,1.37-3.31,4.61,4.61,0,0,1,3.35-1.33,4.74,4.74,0,0,1,3.38,1.33A4.36,4.36,0,0,1,1255.78,352.16Z"/><path class="cls-7" d="M1274.13,365.15c.1.92.18,1.94.23,3.08s.07,2.09.07,2.85h.23a10.86,10.86,0,0,1,1.86-2.7,13.81,13.81,0,0,1,2.7-2.2,13.69,13.69,0,0,1,7.15-2,14.08,14.08,0,0,1,6,1.18,12.17,12.17,0,0,1,4.18,3.16,12.67,12.67,0,0,1,2.47,4.63,19.9,19.9,0,0,1,.8,5.71v22.34h-7.14v-20a24.3,24.3,0,0,0-.35-4.18,9.91,9.91,0,0,0-1.25-3.5,6.81,6.81,0,0,0-2.51-2.43,8.16,8.16,0,0,0-4.1-.91,8.67,8.67,0,0,0-7,3.23,13,13,0,0,0-2.7,8.63v19.15h-7.14V372.91c0-1,0-2.21-.08-3.73s-.12-2.86-.23-4Z"/><path class="cls-7" d="M1319.76,401.18h-7.14v-36h7.14Zm1.22-49a4.23,4.23,0,0,1-1.41,3.26,4.83,4.83,0,0,1-3.38,1.3,4.67,4.67,0,0,1-3.35-1.33,4.35,4.35,0,0,1-1.36-3.23,4.43,4.43,0,0,1,1.36-3.31,4.62,4.62,0,0,1,3.35-1.33,4.73,4.73,0,0,1,3.38,1.33A4.37,4.37,0,0,1,1321,352.16Z"/><path class="cls-7" d="M1339.32,365.15c.1.92.18,1.94.23,3.08s.08,2.09.08,2.85h.22a10.65,10.65,0,0,1,1.87-2.7,13.28,13.28,0,0,1,6-3.68,13.27,13.27,0,0,1,3.8-.54,14.08,14.08,0,0,1,6,1.18,12.08,12.08,0,0,1,4.18,3.16,12.67,12.67,0,0,1,2.47,4.63,19.56,19.56,0,0,1,.8,5.71v22.34h-7.14v-20a25.36,25.36,0,0,0-.34-4.18,10.12,10.12,0,0,0-1.26-3.5,6.81,6.81,0,0,0-2.51-2.43,8.16,8.16,0,0,0-4.1-.91,8.67,8.67,0,0,0-7,3.23c-1.8,2.15-2.69,5-2.69,8.63v19.15h-7.15V372.91c0-1,0-2.21-.08-3.73s-.12-2.86-.22-4Z"/><path class="cls-7" d="M1380.54,407.34a18.08,18.08,0,0,0,13.15,5.85,15.55,15.55,0,0,0,6-1,10.07,10.07,0,0,0,3.91-2.82,10.79,10.79,0,0,0,2.13-4.22,20.33,20.33,0,0,0,.65-5.24v-4.64h-.15a12.67,12.67,0,0,1-5.4,4.64,17.1,17.1,0,0,1-7.3,1.6,18.72,18.72,0,0,1-7.48-1.45,16.76,16.76,0,0,1-5.74-4,17.77,17.77,0,0,1-3.65-5.89,20.24,20.24,0,0,1-1.29-7.26,20.54,20.54,0,0,1,1.29-7.3,18,18,0,0,1,3.65-6,17.08,17.08,0,0,1,5.7-4,18.15,18.15,0,0,1,7.45-1.49,17.08,17.08,0,0,1,7.41,1.68,12.7,12.7,0,0,1,5.58,5.09h.16v-5.78h6.91v34.21a28.91,28.91,0,0,1-1,7.56,16.48,16.48,0,0,1-3.35,6.39,16.66,16.66,0,0,1-6.16,4.44,23.28,23.28,0,0,1-9.42,1.68,27.53,27.53,0,0,1-9.46-1.72,24,24,0,0,1-8.18-4.82Zm2.21-24.55a14.46,14.46,0,0,0,.8,4.79,11.88,11.88,0,0,0,2.35,4,12,12,0,0,0,3.77,2.81,11.38,11.38,0,0,0,5,1.06,12.46,12.46,0,0,0,5-1,11.42,11.42,0,0,0,3.88-2.7,12.28,12.28,0,0,0,2.47-4,14.09,14.09,0,0,0,.87-5,13.53,13.53,0,0,0-.87-4.87,12.44,12.44,0,0,0-2.51-4,12.16,12.16,0,0,0-3.88-2.77,12.63,12.63,0,0,0-10,0,11.7,11.7,0,0,0-3.77,2.74,11.37,11.37,0,0,0-2.35,4A15,15,0,0,0,1382.75,382.79Z"/><path class="cls-7" d="M1473.18,357.32a12,12,0,0,0-4.34-3.61,13.32,13.32,0,0,0-6.15-1.4,14.29,14.29,0,0,0-3.69.49,10,10,0,0,0-3.38,1.6,8.73,8.73,0,0,0-2.47,2.73,7.62,7.62,0,0,0-1,3.92,7.13,7.13,0,0,0,.87,3.68,8,8,0,0,0,2.36,2.51,14.67,14.67,0,0,0,3.5,1.75c1.34.48,2.77,1,4.29,1.48q2.73.84,5.55,1.9a19.84,19.84,0,0,1,5.09,2.82,13.88,13.88,0,0,1,3.73,4.37,13.7,13.7,0,0,1,1.44,6.65,15.89,15.89,0,0,1-1.56,7.26,14.89,14.89,0,0,1-4.14,5.09,17.66,17.66,0,0,1-6,3,24.58,24.58,0,0,1-6.95,1,25.37,25.37,0,0,1-9.85-2,19.39,19.39,0,0,1-7.86-5.85l5.85-4.94a14.44,14.44,0,0,0,15.81,5.78,10.78,10.78,0,0,0,3.46-1.67,9.11,9.11,0,0,0,2.55-2.86,8.23,8.23,0,0,0,1-4.14,7.53,7.53,0,0,0-1-4.06,9.1,9.1,0,0,0-2.78-2.78,18.66,18.66,0,0,0-4.06-1.94c-1.55-.53-3.18-1.07-4.91-1.63a43.78,43.78,0,0,1-5.09-1.86,17.71,17.71,0,0,1-4.48-2.82,13,13,0,0,1-3.2-4.21,14.28,14.28,0,0,1-1.21-6.24,13.8,13.8,0,0,1,1.63-6.91,14.77,14.77,0,0,1,4.26-4.79,17.59,17.59,0,0,1,5.93-2.78,26,26,0,0,1,6.65-.87,23.27,23.27,0,0,1,8.82,1.67,17.58,17.58,0,0,1,6.61,4.49Z"/><path class="cls-7" d="M1515.31,401.18c-.1-.91-.17-1.94-.22-3.08s-.08-2.09-.08-2.85h-.15a11.88,11.88,0,0,1-4.6,4.91,13.34,13.34,0,0,1-7.18,2,14.71,14.71,0,0,1-6-1.14,11.15,11.15,0,0,1-4.18-3.15,13.55,13.55,0,0,1-2.43-4.68,19.78,19.78,0,0,1-.8-5.7V365.15h7.15v19.92a25,25,0,0,0,.34,4.22,10.06,10.06,0,0,0,1.25,3.53,6.81,6.81,0,0,0,2.51,2.43,8.2,8.2,0,0,0,4.11.92,8.63,8.63,0,0,0,7-3.23,13.19,13.19,0,0,0,2.66-8.63V365.15h7.14v28.28c0,1,0,2.2.08,3.72s.13,2.87.23,4Z"/><path class="cls-7" d="M1560,374.27a8.74,8.74,0,0,0-3.42-2.92,10.38,10.38,0,0,0-4.86-1.18,11.12,11.12,0,0,0-5,1.06,11.39,11.39,0,0,0-3.69,2.85,12.86,12.86,0,0,0-2.32,4.15,15.84,15.84,0,0,0,0,9.88,12.71,12.71,0,0,0,2.32,4.14,11.84,11.84,0,0,0,13.72,2.85,10.1,10.1,0,0,0,3.69-2.89l4.79,4.34a15.55,15.55,0,0,1-5.7,4.14,19.32,19.32,0,0,1-7.76,1.48,21.25,21.25,0,0,1-7.71-1.37A18.17,18.17,0,0,1,1538,397a17.68,17.68,0,0,1-4.07-6,21.47,21.47,0,0,1,0-15.59,17.59,17.59,0,0,1,4-6,18.31,18.31,0,0,1,6.12-3.88,21.07,21.07,0,0,1,7.64-1.37,20,20,0,0,1,7.57,1.53,13.85,13.85,0,0,1,6,4.4Z"/><path class="cls-7" d="M1598.22,374.27a8.74,8.74,0,0,0-3.42-2.92,10.42,10.42,0,0,0-4.87-1.18,11.18,11.18,0,0,0-5,1.06,11.35,11.35,0,0,0-3.68,2.85,12.5,12.5,0,0,0-2.32,4.15,15.65,15.65,0,0,0,0,9.88,12.35,12.35,0,0,0,2.32,4.14,11.2,11.2,0,0,0,3.72,2.85,12.22,12.22,0,0,0,10,0,10.15,10.15,0,0,0,3.68-2.89l4.79,4.34a15.55,15.55,0,0,1-5.7,4.14,19.27,19.27,0,0,1-7.75,1.48,21.27,21.27,0,0,1-7.72-1.37,18.37,18.37,0,0,1-6.12-3.84,17.52,17.52,0,0,1-4.06-6,19.84,19.84,0,0,1-1.49-7.83,20.24,20.24,0,0,1,1.45-7.76,17.48,17.48,0,0,1,4-6,18.11,18.11,0,0,1,6.12-3.88,21,21,0,0,1,7.64-1.37,19.94,19.94,0,0,1,7.56,1.53,13.83,13.83,0,0,1,6,4.4Z"/><path class="cls-7" d="M1637.54,380a13.7,13.7,0,0,0-.72-4,9.33,9.33,0,0,0-1.9-3.23,9,9,0,0,0-3.12-2.16,11.07,11.07,0,0,0-4.37-.8,11.56,11.56,0,0,0-4.29.8,11.1,11.1,0,0,0-3.5,2.16,11.43,11.43,0,0,0-2.43,3.23,10.43,10.43,0,0,0-1.11,4Zm7.22,2.88v1.22a8.33,8.33,0,0,1-.08,1.22H1616.1a11,11,0,0,0,1,4.29,11.23,11.23,0,0,0,2.55,3.5,11.79,11.79,0,0,0,3.68,2.32,12.9,12.9,0,0,0,10.76-.76,13,13,0,0,0,4.18-3.88l5,4a17.87,17.87,0,0,1-6.81,5.58,21.91,21.91,0,0,1-16.3.42,17.25,17.25,0,0,1-10-9.8,20.2,20.2,0,0,1-1.44-7.76,20.81,20.81,0,0,1,1.4-7.71,17.53,17.53,0,0,1,9.85-10,20.22,20.22,0,0,1,14.55-.11,14.82,14.82,0,0,1,5.48,3.72,16.86,16.86,0,0,1,3.45,5.89A23.2,23.2,0,0,1,1644.76,382.86Z"/><path class="cls-7" d="M1674.81,374.27a9.42,9.42,0,0,0-3.42-3.23,9.88,9.88,0,0,0-4.94-1.25,11.17,11.17,0,0,0-2.43.27,7,7,0,0,0-2.17.83,4.59,4.59,0,0,0-1.52,1.45,3.86,3.86,0,0,0-.57,2.16,3.59,3.59,0,0,0,2,3.38,25,25,0,0,0,6.16,2,38.68,38.68,0,0,1,4.79,1.44,15.27,15.27,0,0,1,3.84,2.09,8.91,8.91,0,0,1,2.54,3,8.7,8.7,0,0,1,.92,4.1,11.05,11.05,0,0,1-1.22,5.4,10.59,10.59,0,0,1-3.23,3.61,13.1,13.1,0,0,1-4.6,2,22.9,22.9,0,0,1-5.32.61,20.94,20.94,0,0,1-8-1.6,15.62,15.62,0,0,1-6.5-4.86l5.09-4.33a11.75,11.75,0,0,0,4,3.57,11.16,11.16,0,0,0,5.59,1.44,13.08,13.08,0,0,0,2.62-.26,7.36,7.36,0,0,0,2.28-.88,4.63,4.63,0,0,0,1.64-1.59,4.78,4.78,0,0,0,.61-2.51,4,4,0,0,0-2.4-3.73,32.09,32.09,0,0,0-7-2.28c-1.22-.3-2.44-.67-3.69-1.1a12.4,12.4,0,0,1-3.38-1.78,8.94,8.94,0,0,1-2.47-2.85,8.66,8.66,0,0,1-1-4.22,9.92,9.92,0,0,1,1.18-5,10,10,0,0,1,3.08-3.42,13.4,13.4,0,0,1,4.33-2,19.47,19.47,0,0,1,5-.65,19,19,0,0,1,7.48,1.53,12.39,12.39,0,0,1,5.59,4.4Z"/><path class="cls-7" d="M1709.19,374.27a9.42,9.42,0,0,0-3.42-3.23,9.86,9.86,0,0,0-4.94-1.25,11.17,11.17,0,0,0-2.43.27,7,7,0,0,0-2.17.83,4.59,4.59,0,0,0-1.52,1.45,3.86,3.86,0,0,0-.57,2.16,3.6,3.6,0,0,0,2.06,3.38,24.92,24.92,0,0,0,6.15,2,38.17,38.17,0,0,1,4.79,1.44,15.27,15.27,0,0,1,3.84,2.09,9.06,9.06,0,0,1,2.55,3,8.82,8.82,0,0,1,.91,4.1,11.05,11.05,0,0,1-1.22,5.4,10.59,10.59,0,0,1-3.23,3.61,13,13,0,0,1-4.6,2,22.84,22.84,0,0,1-5.32.61,21,21,0,0,1-8-1.6,15.69,15.69,0,0,1-6.5-4.86l5.1-4.33a11.57,11.57,0,0,0,4,3.57,11.13,11.13,0,0,0,5.58,1.44,13.18,13.18,0,0,0,2.63-.26,7.56,7.56,0,0,0,2.28-.88,4.6,4.6,0,0,0,1.63-1.59,4.69,4.69,0,0,0,.61-2.51,4,4,0,0,0-2.4-3.73,32.09,32.09,0,0,0-7-2.28c-1.21-.3-2.44-.67-3.68-1.1a12.46,12.46,0,0,1-3.39-1.78,9.07,9.07,0,0,1-2.47-2.85,8.66,8.66,0,0,1-1-4.22,10,10,0,0,1,1.18-5,10.15,10.15,0,0,1,3.08-3.42,13.5,13.5,0,0,1,4.33-2,19.52,19.52,0,0,1,5-.65,19,19,0,0,1,7.49,1.53,12.36,12.36,0,0,1,5.58,4.4Z"/><path class="cls-8" d="M1451.43,165.87a27.31,27.31,0,0,0-7.79,1.06,16.46,16.46,0,0,0-10.82,9.56,21.66,21.66,0,0,0-1.65,9v47a41,41,0,0,0,2.57,14.58,32.11,32.11,0,0,0,19.14,19.4,42.37,42.37,0,0,0,15.63,2.7,38.71,38.71,0,0,0,8.51-1,37.5,37.5,0,0,0,8.45-2.9,30.52,30.52,0,0,0,7.06-4.75A16,16,0,0,0,1497,254c0,9.56-2.48,16.67-7.45,21.38s-12.15,7.13-21.58,7.13a57.43,57.43,0,0,1-10-.93,38.84,38.84,0,0,1-9.51-2.9,35.78,35.78,0,0,1-8.31-5.34,24.77,24.77,0,0,1-6.2-7.92,15.27,15.27,0,0,0-2.24,6.33c-.2,2-.33,4-.33,6a22.94,22.94,0,0,0,3.16,12.07,27.32,27.32,0,0,0,8.52,8.78,42.33,42.33,0,0,0,12.6,5.34,58.77,58.77,0,0,0,15,1.92c17,0,30-4.57,38.74-13.66s13.13-21.37,13.13-36.82V166.27H1497v65.06s-4.48,15.82-23.09,15.7c-16.41-.1-16.89-13.53-16.89-13.53l0-67.17s-2-.33-2.89-.39S1452.34,165.87,1451.43,165.87Z"/></svg>