<svg width="770" height="682" viewBox="0 0 770 682" fill="none" xmlns="http://www.w3.org/2000/svg">
<g clip-path="url(#clip0_187_43)">
<path d="M361.299 297.63C358.395 307.44 358.469 317.89 361.512 327.658C364.556 337.426 370.431 346.073 378.397 352.506C386.362 358.938 396.059 362.867 406.26 363.796C416.462 364.724 426.71 362.61 435.708 357.722C444.706 352.833 452.051 345.389 456.812 336.331C461.573 327.273 463.537 317.009 462.456 306.836C461.375 296.663 457.298 287.039 450.739 279.181C444.18 271.323 435.435 265.584 425.609 262.691C412.442 258.812 398.271 260.314 386.212 266.866C374.152 273.418 365.192 284.483 361.299 297.63Z" fill="#B0B0B0"/>
<path d="M328.949 432.583C327.237 435.338 326.686 438.658 327.417 441.818C328.147 444.978 330.099 447.721 332.847 449.449L338.265 452.848C341.024 454.56 344.349 455.111 347.514 454.382C350.678 453.653 353.425 451.702 355.154 448.956L517.872 190.074C519.572 187.315 520.116 183.999 519.387 180.842C518.657 177.686 516.713 174.943 513.974 173.207L508.55 169.808C505.79 168.1 502.466 167.55 499.302 168.28C496.139 169.009 493.392 170.957 491.661 173.7L328.949 432.583Z" fill="url(#paint0_linear_187_43)"/>
<path d="M593.354 490.085C591.292 493.387 590.62 497.369 591.487 501.163C592.353 504.957 594.687 508.255 597.979 510.338L672.806 557.246C676.115 559.306 680.105 559.974 683.905 559.105C687.705 558.236 691.006 555.9 693.087 552.608L756.747 451.408C758.81 448.106 759.479 444.122 758.608 440.328C757.738 436.534 755.399 433.239 752.103 431.162L677.282 384.26C673.975 382.2 669.985 381.53 666.185 382.398C662.385 383.266 659.084 385.601 657.002 388.892L593.354 490.085Z" fill="url(#paint1_linear_187_43)"/>
<path d="M755.111 453.926C771.559 470.929 775.144 497.565 762.029 518.415L754.533 530.338C741.43 551.194 715.849 559.53 693.373 552.154L755.111 453.926Z" fill="url(#paint2_linear_187_43)"/>
<path d="M656.971 388.872L592.433 491.596C488.582 437.104 391.52 440.185 358.715 443.345L514.183 195.944C525.486 228.4 564.014 319.44 656.971 388.872Z" fill="url(#paint3_linear_187_43)"/>
<path d="M676.712 559.685C676.424 560.123 676.093 560.531 675.725 560.904L656.685 576.474C655.195 577.679 653.292 578.255 651.382 578.081C649.473 577.906 647.707 576.995 646.46 575.539L589.627 669.168L587.509 672.535L583.722 678.555C582.684 680.2 581.037 681.368 579.14 681.805C577.243 682.243 575.25 681.914 573.595 680.891L530.624 653.949C528.979 652.911 527.812 651.265 527.377 649.371C526.941 647.477 527.272 645.487 528.298 643.836L534.21 634.443C535.275 632.822 536.927 631.676 538.82 631.245C540.713 630.814 542.7 631.133 544.363 632.133C544.363 632.133 562.98 608.001 570.1 596.661C579.071 582.39 602.866 544.544 610.713 532.05L600.547 519.666C599.62 518.527 599.055 517.138 598.926 515.677C598.796 514.216 599.107 512.749 599.819 511.466L676.712 559.685Z" fill="url(#paint4_linear_187_43)"/>
<path d="M610.687 532.05L587.275 551.245L593.154 559.88L610.687 532.05Z" fill="#B0B0B0"/>
<path d="M362.474 146.467L388.933 215.503C389.527 217.053 390.714 218.304 392.232 218.98C393.75 219.656 395.474 219.703 397.027 219.11C397.796 218.817 398.499 218.375 399.097 217.81C399.695 217.244 400.175 216.567 400.511 215.816C400.846 215.066 401.03 214.256 401.052 213.434C401.074 212.613 400.933 211.794 400.638 211.027L374.167 141.991C373.873 141.223 373.431 140.52 372.865 139.923C372.299 139.326 371.621 138.845 370.87 138.51C370.118 138.174 369.308 137.99 368.485 137.967C367.662 137.945 366.842 138.084 366.073 138.377C364.522 138.974 363.271 140.161 362.597 141.678C361.922 143.195 361.878 144.918 362.474 146.467Z" fill="url(#paint5_linear_187_43)"/>
<path d="M298.12 198.286L349.315 251.701C349.884 252.295 350.566 252.771 351.32 253.102C352.074 253.433 352.886 253.612 353.709 253.63C354.533 253.647 355.352 253.503 356.119 253.204C356.886 252.905 357.587 252.458 358.182 251.889C358.777 251.321 359.253 250.641 359.585 249.888C359.916 249.136 360.096 248.326 360.113 247.504C360.131 246.682 359.986 245.865 359.687 245.099C359.387 244.333 358.94 243.634 358.37 243.04L307.175 189.645C306.606 189.051 305.926 188.575 305.172 188.244C304.419 187.913 303.607 187.734 302.784 187.716C301.961 187.699 301.143 187.843 300.376 188.142C299.609 188.441 298.909 188.887 298.315 189.457C297.119 190.603 296.427 192.176 296.39 193.831C296.354 195.486 296.976 197.088 298.12 198.286Z" fill="url(#paint6_linear_187_43)"/>
<path d="M258.144 267.543L327.755 292.687C329.318 293.251 331.042 293.172 332.547 292.468C334.053 291.764 335.217 290.492 335.784 288.931C336.066 288.157 336.193 287.335 336.157 286.511C336.12 285.688 335.922 284.88 335.573 284.133C335.223 283.387 334.73 282.716 334.121 282.161C333.512 281.605 332.799 281.174 332.023 280.894L262.438 255.776C260.874 255.212 259.151 255.291 257.645 255.995C256.14 256.699 254.976 257.971 254.409 259.532C253.843 261.089 253.919 262.806 254.619 264.308C255.319 265.81 256.587 266.973 258.144 267.543Z" fill="url(#paint7_linear_187_43)"/>
<path d="M240.534 333.926L314.088 342.301C314.905 342.394 315.732 342.325 316.523 342.099C317.314 341.872 318.052 341.493 318.696 340.981C319.339 340.47 319.876 339.837 320.274 339.118C320.673 338.399 320.926 337.61 321.019 336.793C321.112 335.977 321.043 335.151 320.816 334.361C320.59 333.572 320.209 332.834 319.697 332.191C319.185 331.549 318.551 331.013 317.832 330.615C317.112 330.217 316.321 329.964 315.504 329.872L241.95 321.503C240.299 321.315 238.64 321.79 237.339 322.823C236.038 323.855 235.201 325.362 235.012 327.011C234.92 327.827 234.99 328.653 235.217 329.442C235.445 330.232 235.826 330.968 236.339 331.611C236.851 332.253 237.486 332.788 238.206 333.185C238.925 333.582 239.716 333.834 240.534 333.926Z" fill="url(#paint8_linear_187_43)"/>
<path d="M125.529 384.999C125.124 386.397 124.805 387.818 124.574 389.255L131.401 392.764L131.648 400.361L125.074 404.318C125.754 407.194 126.764 409.982 128.082 412.628L135.676 411.447L140.359 417.442L137.371 424.513C139.547 426.386 141.929 428.005 144.471 429.339L149.947 423.948L157.255 426.108L158.951 433.601C161.9 433.859 164.869 433.774 167.798 433.348L169.059 425.778L176.237 423.222L182.018 428.275C184.559 426.752 186.913 424.938 189.034 422.871L185.591 416.021L189.878 409.741L197.53 410.429C198.134 409.01 198.653 407.557 199.083 406.076C199.464 404.72 199.774 403.345 200.012 401.957L193.191 398.428L192.964 390.831L199.57 386.894C198.895 384.01 197.89 381.213 196.576 378.558L188.975 379.706L184.311 373.699L187.332 366.634C185.093 364.7 182.636 363.032 180.011 361.665L174.548 367.069L167.233 364.948L165.525 357.442C162.572 357.198 159.601 357.294 156.671 357.727L155.437 365.304L148.291 367.899L142.503 362.865C139.968 364.396 137.62 366.216 135.507 368.288L138.976 375.132L134.675 381.444L127.017 380.796C126.437 382.166 125.94 383.57 125.529 384.999ZM155.476 379.81C158.584 378.465 162.022 378.071 165.354 378.677C168.687 379.283 171.765 380.862 174.2 383.214C176.634 385.567 178.316 388.586 179.033 391.893C179.75 395.199 179.469 398.643 178.227 401.79C176.984 404.937 174.836 407.646 172.053 409.574C169.269 411.503 165.976 412.564 162.589 412.624C159.202 412.684 155.874 411.741 153.024 409.912C150.173 408.084 147.93 405.453 146.576 402.352C144.767 398.188 144.688 393.476 146.357 389.254C148.026 385.031 151.306 381.643 155.476 379.836V379.81Z" fill="url(#paint9_linear_187_43)"/>
<path d="M137.767 469.618C137.491 470.603 137.274 471.604 137.117 472.615L141.931 475.086L142.106 480.445L137.468 483.234C137.948 485.256 138.661 487.215 139.592 489.073L144.945 488.242L148.245 492.472L146.14 497.454C147.673 498.775 149.351 499.917 151.142 500.86L155.04 497.058L160.184 498.583L161.38 503.863C163.46 504.049 165.555 503.99 167.622 503.688L168.512 498.349L173.573 496.546L177.6 500.159C179.389 499.087 181.046 497.809 182.537 496.351L180.121 491.518L183.148 487.094L188.539 487.574C188.966 486.576 189.333 485.554 189.637 484.512C189.903 483.553 190.12 482.581 190.287 481.599L185.473 479.115L185.317 473.756L189.975 470.98C189.498 468.946 188.787 466.974 187.857 465.103L182.537 465.881L179.244 461.645L181.374 456.663C179.797 455.299 178.066 454.123 176.216 453.16L172.358 456.974L167.207 455.469L165.972 450.208C163.89 450.036 161.796 450.106 159.73 450.416L158.859 455.755L153.805 457.577L149.719 454.029C147.933 455.108 146.279 456.39 144.789 457.85L147.231 462.676L144.211 467.075L138.806 466.601C138.4 467.585 138.053 468.592 137.767 469.618ZM158.885 465.972C161.077 465.025 163.5 464.747 165.85 465.175C168.199 465.602 170.369 466.716 172.085 468.374C173.802 470.032 174.987 472.161 175.493 474.492C175.998 476.823 175.801 479.251 174.925 481.47C174.049 483.689 172.535 485.598 170.573 486.958C168.611 488.318 166.29 489.067 163.902 489.11C161.514 489.153 159.167 488.488 157.157 487.2C155.148 485.912 153.565 484.058 152.61 481.872C151.975 480.417 151.634 478.851 151.605 477.263C151.577 475.676 151.863 474.099 152.445 472.622C153.028 471.145 153.897 469.798 155.002 468.657C156.107 467.515 157.427 466.603 158.885 465.972Z" fill="#B0B0B0"/>
<path d="M1.49407 433.192C0.848519 435.632 0.349605 438.108 0 440.607L11.9721 446.445L12.6866 459.614L1.42911 466.75C2.71007 471.705 4.56301 476.494 6.95069 481.022L20.079 478.699L28.4264 488.923L23.4959 501.301C27.339 504.467 31.5297 507.188 35.9877 509.41L45.3029 499.86L58.048 503.338L61.296 516.273C66.425 516.615 71.5766 516.358 76.646 515.507L78.5493 502.326L90.8916 497.635L101.11 506.179C105.444 503.444 109.445 500.213 113.03 496.552L106.833 484.784L114.043 473.756L127.341 474.664C128.335 472.187 129.178 469.653 129.867 467.074C130.481 464.705 130.971 462.306 131.336 459.887L119.37 454.048L118.72 440.873L130.03 433.808C128.751 428.828 126.903 424.011 124.521 419.452L111.367 421.664L103.052 411.415L108.035 399.044C104.078 395.771 99.7554 392.967 95.153 390.688L85.8703 400.257L73.1057 396.838L69.8577 383.909C64.7263 383.592 59.5755 383.869 54.5077 384.733L52.6434 397.921L40.301 402.664L30.0763 394.172C25.7394 396.919 21.737 400.161 18.1497 403.831L24.4184 415.573L17.2403 426.666L3.89758 425.777C2.9548 428.201 2.1523 430.677 1.49407 433.192ZM53.267 423.124C58.6112 420.674 64.5627 419.86 70.3697 420.786C76.1767 421.713 81.5785 424.337 85.8925 428.328C90.2065 432.319 93.2391 437.497 94.6073 443.208C95.9754 448.92 95.6176 454.908 93.5791 460.416C91.5405 465.925 87.9127 470.706 83.1541 474.157C78.3955 477.607 72.7195 479.571 66.8435 479.801C60.9674 480.031 55.1549 478.517 50.1405 475.449C45.126 472.381 41.1346 467.898 38.6705 462.566C37.0326 459.019 36.111 455.185 35.9582 451.283C35.8055 447.38 36.4246 443.486 37.7803 439.823C39.136 436.16 41.2016 432.799 43.859 429.934C46.5163 427.068 49.7133 424.754 53.267 423.124Z" fill="url(#paint10_linear_187_43)"/>
<path d="M133.506 83.3213V106.026C133.506 107.856 133.867 109.668 134.568 111.358C135.269 113.048 136.297 114.584 137.593 115.877C138.889 117.171 140.427 118.196 142.12 118.896C143.813 119.595 145.627 119.955 147.459 119.954H158.502V138.65L178.971 119.954H229.822C236.541 119.954 242.985 117.289 247.736 112.544C252.487 107.799 255.156 101.364 255.156 94.6544C255.156 87.9444 252.487 81.5093 247.736 76.7646C242.985 72.02 236.541 69.3545 229.822 69.3545H147.459C145.624 69.3536 143.806 69.7145 142.111 70.4165C140.416 71.1185 138.876 72.1478 137.579 73.4453C136.283 74.7429 135.256 76.2832 134.557 77.9779C133.858 79.6726 133.501 81.4885 133.506 83.3213Z" fill="url(#paint11_linear_187_43)"/>
<path d="M165.004 98.2476C167.372 98.2476 169.291 96.3307 169.291 93.9661C169.291 91.6015 167.372 89.6846 165.004 89.6846C162.636 89.6846 160.717 91.6015 160.717 93.9661C160.717 96.3307 162.636 98.2476 165.004 98.2476Z" fill="white"/>
<path d="M186.383 98.2476C188.751 98.2476 190.67 96.3307 190.67 93.9661C190.67 91.6015 188.751 89.6846 186.383 89.6846C184.015 89.6846 182.096 91.6015 182.096 93.9661C182.096 96.3307 184.015 98.2476 186.383 98.2476Z" fill="white"/>
<path d="M207.754 98.2476C210.122 98.2476 212.041 96.3307 212.041 93.9661C212.041 91.6015 210.122 89.6846 207.754 89.6846C205.386 89.6846 203.467 91.6015 203.467 93.9661C203.467 96.3307 205.386 98.2476 207.754 98.2476Z" fill="white"/>
<path d="M412.338 62.5361H388.856C380.551 62.5361 372.587 59.2418 366.716 53.3779C360.844 47.514 357.545 39.5608 357.545 31.268C357.545 22.9752 360.844 15.0221 366.716 9.15821C372.587 3.29431 380.551 1.0768e-05 388.856 1.0768e-05H412.338C416.452 -0.00339866 420.527 0.802857 424.328 2.3727C428.13 3.94254 431.585 6.24518 434.495 9.14903C437.405 12.0529 439.714 15.501 441.289 19.2963C442.864 23.0916 443.675 27.1597 443.675 31.268C443.675 35.3764 442.864 39.4445 441.289 43.2398C439.714 47.0351 437.405 50.4832 434.495 53.3871C431.585 56.2909 428.13 58.5936 424.328 60.1634C420.527 61.7332 416.452 62.5395 412.338 62.5361Z" fill="url(#paint12_linear_187_43)"/>
<path d="M417.503 30.5545L388.343 13.7399C388.186 13.6503 388.009 13.6033 387.829 13.6035C387.648 13.6037 387.471 13.6511 387.314 13.741C387.158 13.8309 387.028 13.9602 386.937 14.1159C386.846 14.2716 386.798 14.4484 386.797 14.6286V48.2644C386.798 48.4446 386.846 48.6214 386.937 48.7771C387.028 48.9328 387.158 49.0621 387.314 49.152C387.471 49.2419 387.648 49.2893 387.829 49.2895C388.009 49.2897 388.186 49.2427 388.343 49.1532L417.503 32.3385C417.66 32.2478 417.79 32.1177 417.88 31.9611C417.97 31.8046 418.018 31.6271 418.018 31.4465C418.018 31.2659 417.97 31.0884 417.88 30.9319C417.79 30.7754 417.66 30.6452 417.503 30.5545Z" fill="white"/>
<path d="M123.964 287.588C142.878 287.588 158.21 272.276 158.21 253.388C158.21 234.499 142.878 219.188 123.964 219.188C105.05 219.188 89.7168 234.499 89.7168 253.388C89.7168 272.276 105.05 287.588 123.964 287.588Z" fill="#DFDFDF"/>
<path d="M108.268 241.134L132.121 264.579L172.298 215.782" stroke="url(#paint13_linear_187_43)" stroke-width="3" stroke-linecap="round" stroke-linejoin="round"/>
<path d="M611.122 75.3672H552.425C550.9 75.3672 549.664 76.6016 549.664 78.1242V136.742C549.664 138.265 550.9 139.499 552.425 139.499H611.122C612.647 139.499 613.883 138.265 613.883 136.742V78.1242C613.883 76.6016 612.647 75.3672 611.122 75.3672Z" fill="url(#paint14_linear_187_43)"/>
<path d="M597.98 94.9265C593.511 90.7229 586.378 91.1575 582.033 95.4974L581.773 95.7569L581.513 95.4974C577.174 91.1575 570.041 90.7229 565.565 94.9265C564.471 95.9543 563.595 97.1909 562.988 98.5632C562.382 99.9355 562.058 101.415 562.035 102.915C562.011 104.415 562.29 105.904 562.854 107.294C563.418 108.685 564.256 109.947 565.318 111.008L579.324 124.365C579.984 124.996 580.862 125.348 581.776 125.348C582.69 125.348 583.568 124.996 584.228 124.365L598.227 111.008C599.289 109.947 600.127 108.685 600.691 107.294C601.255 105.904 601.534 104.415 601.511 102.915C601.488 101.415 601.163 99.9355 600.557 98.5632C599.95 97.1909 599.074 95.9543 597.98 94.9265Z" fill="white"/>
</g>
<defs>
<linearGradient id="paint0_linear_187_43" x1="336.241" y1="305.341" x2="510.572" y2="317.303" gradientUnits="userSpaceOnUse">
<stop stop-color="#FF0823"/>
<stop offset="1" stop-color="#FF8200"/>
</linearGradient>
<linearGradient id="paint1_linear_187_43" x1="593.318" y1="465.101" x2="756.723" y2="476.313" gradientUnits="userSpaceOnUse">
<stop stop-color="#FF0823"/>
<stop offset="1" stop-color="#FF8200"/>
</linearGradient>
<linearGradient id="paint2_linear_187_43" x1="696.813" y1="501.938" x2="769.002" y2="506.892" gradientUnits="userSpaceOnUse">
<stop stop-color="#FF8200"/>
<stop offset="0.14" stop-color="#FF8F00"/>
<stop offset="0.43" stop-color="#FFA300"/>
<stop offset="0.72" stop-color="#FFB000"/>
<stop offset="1" stop-color="#FFB400"/>
</linearGradient>
<linearGradient id="paint3_linear_187_43" x1="577.314" y1="309.685" x2="448.013" y2="493.41" gradientUnits="userSpaceOnUse">
<stop stop-color="#FF8200"/>
<stop offset="0.03" stop-color="#FF8600"/>
<stop offset="0.2" stop-color="#FF9B00"/>
<stop offset="0.39" stop-color="#FFA900"/>
<stop offset="0.62" stop-color="#FFB100"/>
<stop offset="1" stop-color="#FFB400"/>
</linearGradient>
<linearGradient id="paint4_linear_187_43" x1="530.948" y1="592.752" x2="673.763" y2="602.551" gradientUnits="userSpaceOnUse">
<stop stop-color="#FF8200"/>
<stop offset="0.01" stop-color="#FF8400"/>
<stop offset="0.2" stop-color="#FF9900"/>
<stop offset="0.4" stop-color="#FFA800"/>
<stop offset="0.64" stop-color="#FFB100"/>
<stop offset="1" stop-color="#FFB400"/>
</linearGradient>
<linearGradient id="paint5_linear_187_43" x1="359.759" y1="177.235" x2="403.335" y2="180.225" gradientUnits="userSpaceOnUse">
<stop stop-color="#FF8200"/>
<stop offset="0.03" stop-color="#FF8600"/>
<stop offset="0.2" stop-color="#FF9B00"/>
<stop offset="0.39" stop-color="#FFA900"/>
<stop offset="0.62" stop-color="#FFB100"/>
<stop offset="1" stop-color="#FFB400"/>
</linearGradient>
<linearGradient id="paint6_linear_187_43" x1="294.686" y1="218.337" x2="361.8" y2="222.942" gradientUnits="userSpaceOnUse">
<stop stop-color="#FF8200"/>
<stop offset="0.03" stop-color="#FF8600"/>
<stop offset="0.2" stop-color="#FF9B00"/>
<stop offset="0.39" stop-color="#FFA900"/>
<stop offset="0.62" stop-color="#FFB100"/>
<stop offset="1" stop-color="#FFB400"/>
</linearGradient>
<linearGradient id="paint7_linear_187_43" x1="253.323" y1="271.349" x2="336.84" y2="277.08" gradientUnits="userSpaceOnUse">
<stop stop-color="#FF8200"/>
<stop offset="0.03" stop-color="#FF8600"/>
<stop offset="0.2" stop-color="#FF9B00"/>
<stop offset="0.39" stop-color="#FFA900"/>
<stop offset="0.62" stop-color="#FFB100"/>
<stop offset="1" stop-color="#FFB400"/>
</linearGradient>
<linearGradient id="paint8_linear_187_43" x1="234.879" y1="328.92" x2="321.163" y2="334.841" gradientUnits="userSpaceOnUse">
<stop stop-color="#FF8200"/>
<stop offset="0.03" stop-color="#FF8600"/>
<stop offset="0.2" stop-color="#FF9B00"/>
<stop offset="0.39" stop-color="#FFA900"/>
<stop offset="0.62" stop-color="#FFB100"/>
<stop offset="1" stop-color="#FFB400"/>
</linearGradient>
<linearGradient id="paint9_linear_187_43" x1="196.945" y1="411.651" x2="127.679" y2="379.307" gradientUnits="userSpaceOnUse">
<stop stop-color="#FF8200"/>
<stop offset="0.03" stop-color="#FF8600"/>
<stop offset="0.2" stop-color="#FF9B00"/>
<stop offset="0.39" stop-color="#FFA900"/>
<stop offset="0.62" stop-color="#FFB100"/>
<stop offset="1" stop-color="#FFB400"/>
</linearGradient>
<linearGradient id="paint10_linear_187_43" x1="129.326" y1="468.992" x2="2.12288" y2="430.995" gradientUnits="userSpaceOnUse">
<stop stop-color="#FF0823"/>
<stop offset="1" stop-color="#FF8200"/>
</linearGradient>
<linearGradient id="paint11_linear_187_43" x1="133.467" y1="106.798" x2="254.603" y2="89.0542" gradientUnits="userSpaceOnUse">
<stop stop-color="#FF8200"/>
<stop offset="0.03" stop-color="#FF8600"/>
<stop offset="0.2" stop-color="#FF9B00"/>
<stop offset="0.39" stop-color="#FFA900"/>
<stop offset="0.62" stop-color="#FFB100"/>
<stop offset="1" stop-color="#FFB400"/>
</linearGradient>
<linearGradient id="paint12_linear_187_43" x1="438.628" y1="48.978" x2="362.603" y2="13.4854" gradientUnits="userSpaceOnUse">
<stop stop-color="#FF0823"/>
<stop offset="1" stop-color="#FF8200"/>
</linearGradient>
<linearGradient id="paint13_linear_187_43" x1="160.235" y1="243.917" x2="115.617" y2="223.086" gradientUnits="userSpaceOnUse">
<stop stop-color="#FF0823"/>
<stop offset="1" stop-color="#FF8200"/>
</linearGradient>
<linearGradient id="paint14_linear_187_43" x1="549.664" y1="107.433" x2="613.883" y2="107.433" gradientUnits="userSpaceOnUse">
<stop stop-color="#FF8200"/>
<stop offset="0.16" stop-color="#FF9100"/>
<stop offset="0.43" stop-color="#FFA400"/>
<stop offset="0.71" stop-color="#FFB000"/>
<stop offset="1" stop-color="#FFB400"/>
</linearGradient>
<clipPath id="clip0_187_43">
<rect width="770" height="682" fill="white"/>
</clipPath>
</defs>
</svg>
