<svg width="1508" height="989" viewBox="0 0 1508 989" fill="none" xmlns="http://www.w3.org/2000/svg">
<g clip-path="url(#clip0_185_20)">
<path d="M1476.34 -45.1367H31.6601C14.1747 -45.1367 0 -28.61 0 -8.22321V1030.9C0 1051.28 14.1747 1067.81 31.6601 1067.81H1476.34C1493.83 1067.81 1508 1051.28 1508 1030.9V-8.22321C1508 -28.61 1493.83 -45.1367 1476.34 -45.1367Z" fill="white"/>
<g opacity="0.76">
<path d="M1508 -8.24152V1030.9C1508 1051.28 1492.29 1067.81 1472.98 1067.81H848.502C883.524 990.694 887.883 896.19 849.287 821.053C823.526 770.843 779.935 729.91 766.976 674.452C755.147 623.839 771.963 569.499 800.992 527.329C830.021 485.16 870.297 453.209 910.77 423.228C938.047 403.008 966.306 382.743 985.526 354.035C1004.74 325.326 1013.08 285.62 997.126 254.778C970.469 203.212 901.038 206.582 845.431 210.144C763.009 215.483 675.639 203.917 608.706 152.929C550.248 108.387 513.121 27.5823 527.133 -45.1367H1472.98C1492.29 -45.1367 1508 -28.6076 1508 -8.24152Z" fill="#EEEEEE"/>
</g>
<path d="M1508 -8.24141V1030.9C1508 1040.69 1504.66 1050.07 1498.73 1057C1492.79 1063.92 1484.74 1067.81 1476.34 1067.81H1321.61C1353.28 990.694 1357.21 896.19 1322.35 821.053C1299.06 770.843 1259.67 729.91 1247.95 674.452C1237.26 623.839 1252.46 569.499 1278.7 527.33C1304.94 485.16 1341.35 453.21 1377.93 423.228C1402.6 403.009 1428.14 382.743 1445.48 354.035C1462.82 325.326 1470.39 285.62 1455.96 254.778C1431.86 203.212 1369.11 206.582 1318.83 210.144C1244.32 215.483 1165.35 203.917 1104.84 152.929C1051.96 108.387 1018.44 27.5824 1031.06 -45.1366H1476.26C1480.42 -45.1486 1484.55 -44.2033 1488.4 -42.3548C1492.25 -40.5063 1495.74 -37.7908 1498.69 -34.3638C1501.64 -30.9368 1503.98 -26.8656 1505.58 -22.3832C1507.17 -17.9007 1508 -13.0951 1508 -8.24141Z" fill="#E2E2E2"/>
<g opacity="0.76">
<path d="M427.84 1030.29C427.055 1042.87 425.759 1055.41 424.015 1067.84H34.8097C30.2364 1067.84 25.708 1066.79 21.4831 1064.74C17.2583 1062.7 13.4199 1059.71 10.1872 1055.94C6.9545 1052.17 4.39093 1047.69 2.64297 1042.76C0.895007 1037.84 -0.00308764 1032.56 7.97541e-06 1027.22V518.428C1.81432 518.108 3.63649 517.842 5.41153 517.568L132.57 497.687C167.066 492.275 202.378 486.909 236.528 494.839C270.678 502.769 304.168 526.551 317.238 564.234C336.496 619.7 306.799 683.683 318.322 742.025C329.616 799.341 376.717 836.135 402.707 886.501C424.675 929.111 430.856 980.758 427.84 1030.29Z" fill="#EEEEEE"/>
</g>
<path d="M216.563 1067.81H31.6601C23.2634 1067.81 15.2105 1063.92 9.27304 1057C3.33561 1050.07 0 1040.69 0 1030.9L0 712.849C25.0155 709.699 50.1646 708.582 74.6853 714.278C108.882 722.19 142.333 746.017 155.426 783.673C174.669 839.13 144.972 903.113 156.479 961.445C164.749 1003.45 192.254 1034.42 216.563 1067.81Z" fill="#E2E2E2"/>
</g>
<defs>
<clipPath id="clip0_185_20">
<rect width="1508" height="989" fill="white"/>
</clipPath>
</defs>
</svg>
