<svg width="534" height="139" viewBox="0 0 534 139" fill="none" xmlns="http://www.w3.org/2000/svg">
<path d="M10.3635 58.5634H21.9842C25.7455 58.5325 29.467 59.3378 32.8812 60.9214C36.1934 62.4518 39.1605 64.6423 41.6019 67.3597C44.116 70.1867 46.0861 73.4567 47.4123 77.0039C48.8506 80.8502 49.5669 84.9303 49.5251 89.038C49.5251 99.2828 46.5583 107.132 40.6248 112.587C34.6912 118.041 26.1394 120.772 14.9695 120.779H0V69.1614C0 62.096 3.4545 58.5634 10.3635 58.5634ZM11.9481 69.6913V109.672H18.8624C21.5032 109.71 24.1244 109.213 26.569 108.21C28.8263 107.261 30.8399 105.812 32.4586 103.971C34.1409 102.038 35.4214 99.788 36.2247 97.3522C37.1447 94.5585 37.5928 91.6302 37.5506 88.6883C37.588 86.0134 37.1535 83.3529 36.267 80.8299C35.4771 78.5877 34.2162 76.542 32.5695 74.8314C30.9059 73.1442 28.8962 71.8405 26.68 71.0108C24.2077 70.0946 21.5874 69.6472 18.9522 69.6913H11.9481Z" fill="#021522"/>
<path d="M68.6676 74.5685C67.4004 74.5628 66.1443 74.8058 64.9701 75.2838C63.8394 75.7515 62.8017 76.4192 61.9064 77.2551C61.0074 78.1007 60.298 79.1285 59.8253 80.2702C59.3214 81.4799 59.0681 82.7798 59.0805 84.0908V120.787H70.5955V74.7486C70.2703 74.6914 69.9424 74.6507 69.613 74.6267C69.2486 74.6002 68.9475 74.5685 68.6676 74.5685Z" fill="#021522"/>
<path d="M64.6645 58.1465C62.4196 58.1465 60.7874 58.936 59.8155 60.5363C58.7996 62.2926 58.2928 64.2985 58.3524 66.3282C58.3672 67.7403 58.5068 69.1483 58.7696 70.5356C59.039 71.9875 59.3718 73.413 59.7838 74.8384C60.0825 74.0664 60.6264 73.4145 61.3315 72.9838C62.4928 72.3392 63.737 71.8578 65.029 71.553C65.8582 71.3146 67.4429 70.7158 67.4429 70.7158C68.1888 70.355 68.9058 69.9369 69.5874 69.4652C70.1912 68.9788 70.6953 68.3795 71.0717 67.7006C71.4874 66.921 71.6931 66.0462 71.6686 65.1624C71.666 63.3824 71.0204 61.6636 69.8515 60.3244C68.6314 58.8778 66.9094 58.1465 64.6645 58.1465Z" fill="#F29415"/>
<path d="M116.022 74.8432V78.171C110.296 73.5609 102.817 73.8523 101.142 73.8523C98.4654 73.8545 95.8161 74.395 93.3511 75.442C90.7985 76.5183 88.4922 78.107 86.5742 80.1104C84.5329 82.2388 82.919 84.7413 81.8203 87.4814C79.4465 93.8282 79.4615 100.826 81.8625 107.162C82.9776 109.914 84.5993 112.431 86.6428 114.581C88.5851 116.605 90.9155 118.215 93.4937 119.313C95.995 120.399 98.6914 120.96 101.417 120.961C104.18 121.031 106.926 120.516 109.477 119.45C111.928 118.293 114.148 116.697 116.027 114.74C116.03 116.388 115.82 118.03 115.404 119.625C115.011 121.194 114.271 122.654 113.238 123.896C112.129 125.191 110.735 126.209 109.166 126.869C107.151 127.673 104.994 128.051 102.827 127.982C101.21 127.971 99.5961 127.836 97.9994 127.579C96.2411 127.309 94.508 126.895 92.8176 126.339C91.129 125.784 89.5092 125.038 87.9898 124.114C86.5869 123.29 85.3679 122.187 84.4085 120.871C84.1782 121.594 84.0138 122.337 83.9173 123.091C83.8304 123.769 83.7863 124.452 83.7852 125.136C83.7402 127.269 84.2752 129.374 85.3329 131.225C86.3955 133 87.8684 134.492 89.6272 135.575C91.6342 136.8 93.8351 137.671 96.1348 138.151C98.8279 138.736 101.577 139.02 104.333 138.998C111.949 138.998 117.721 136.732 121.647 132.2C125.574 127.667 127.537 121.432 127.537 113.494V74.8432H116.022ZM116.022 93.6813C116.026 95.7247 115.833 97.7636 115.446 99.7698C115.101 101.644 114.442 103.447 113.497 105.101C112.602 106.652 111.33 107.95 109.8 108.874C108.024 109.888 106 110.382 103.958 110.299C102.082 110.34 100.222 109.96 98.5117 109.186C97.0294 108.503 95.7027 107.522 94.6135 106.304C93.5759 105.112 92.7921 103.72 92.3105 102.213C91.8116 100.694 91.5567 99.1059 91.5552 97.5071C91.5582 95.8843 91.8277 94.273 92.3528 92.738C92.8645 91.21 93.6603 89.7931 94.6981 88.5624C95.7642 87.3251 97.078 86.3267 98.554 85.6321C100.256 84.8592 102.111 84.4824 103.979 84.5298C104.851 84.5328 105.723 84.5913 106.588 84.7047C108.398 84.9306 110.129 85.5844 111.638 86.6124C112.282 87.0575 114.321 88.4988 116.022 91.9909V93.6813Z" fill="#021522"/>
<path d="M147.545 74.5684C146.29 74.5634 145.046 74.8065 143.885 75.2838C142.753 75.7502 141.715 76.418 140.821 77.255C139.911 78.0977 139.19 79.1257 138.708 80.2702C138.204 81.4799 137.951 82.7798 137.963 84.0908V120.786H149.484V74.7486C149.158 74.6914 148.83 74.6507 148.501 74.6267C148.174 74.6002 147.841 74.5684 147.545 74.5684Z" fill="#021522"/>
<path d="M143.556 58.1465C141.312 58.1465 139.711 58.936 138.734 60.5363C137.722 62.2941 137.217 64.2993 137.276 66.3282C137.276 67.7398 137.407 69.1483 137.667 70.5356C137.946 71.987 138.299 73.4231 138.723 74.8384C139.022 74.0664 139.566 73.4145 140.271 72.9838C141.419 72.3382 142.651 71.8567 143.932 71.553C144.759 71.3185 145.574 71.039 146.372 70.7158C147.134 70.4064 147.846 69.9849 148.485 69.4652C149.097 68.9783 149.611 68.3795 150.001 67.7006C150.405 66.9181 150.6 66.0433 150.566 65.1624C150.566 63.3819 149.92 61.6623 148.749 60.3244C147.523 58.8778 145.786 58.1465 143.556 58.1465Z" fill="#F29415"/>
<path d="M165.088 74.8494V72.343C165.068 71.0259 165.34 69.7208 165.885 68.5224C166.393 67.4244 167.119 66.4412 168.016 65.6324C168.914 64.8236 169.967 64.206 171.109 63.8168C172.306 63.3964 173.565 63.185 174.833 63.1916H175.715C176.013 63.1926 176.31 63.2228 176.603 63.2816V74.8335H186.876C186.873 75.9798 186.769 77.1236 186.565 78.2514C186.379 79.358 185.973 80.4158 185.371 81.3619C184.769 82.2894 183.947 83.0523 182.978 83.5822C181.774 84.1944 180.434 84.4863 179.085 84.43H176.603V108.064C176.593 108.476 176.675 108.886 176.843 109.263C177.011 109.64 177.261 109.974 177.575 110.242C178.212 110.798 179.033 111.098 179.878 111.084C180.884 111.084 181.884 110.934 182.846 110.639C183.726 110.411 184.496 109.876 185.017 109.129C185.362 110.036 185.541 110.998 185.545 111.969C185.553 113.172 185.327 114.366 184.88 115.482C184.428 116.588 183.75 117.587 182.888 118.413C181.943 119.308 180.827 120.004 179.608 120.458C178.192 120.981 176.691 121.236 175.182 121.211C173.923 121.211 172.674 121.002 171.484 120.591C170.271 120.186 169.153 119.536 168.201 118.68C167.248 117.824 166.482 116.781 165.949 115.615C165.331 114.248 165.028 112.759 165.061 111.259V84.4459H159.42V74.8494H165.088Z" fill="#021522"/>
<path d="M214.507 73.6035C218.406 73.6035 221.52 74.5061 223.851 76.3113C226.183 78.1165 227.35 80.7978 227.353 84.3552C227.41 85.589 227.134 86.8153 226.556 87.9056C225.557 86.4301 224.053 85.3727 222.33 84.9328C220.734 84.4596 219.082 84.2047 217.418 84.1751C215.489 84.1321 213.576 84.5441 211.835 85.3779C210.29 86.1405 208.918 87.2137 207.804 88.5309C206.706 89.8513 205.878 91.3767 205.369 93.0191C204.846 94.6713 204.579 96.394 204.577 98.1274C204.576 99.7849 204.829 101.433 205.327 103.013C205.808 104.556 206.575 105.995 207.588 107.252C208.62 108.517 209.921 109.535 211.396 110.23C213.062 110.997 214.878 111.375 216.71 111.338C218.83 111.422 220.927 110.868 222.732 109.748C224.306 108.705 225.598 107.286 226.492 105.62C227.451 103.831 228.114 101.899 228.457 99.8973C228.838 97.8169 229.03 95.7064 229.033 93.5914V74.7587H240.548V120.781H229.033V115.72C227.061 117.748 224.695 119.35 222.082 120.426C217.08 122.469 211.474 122.438 206.494 120.341C203.922 119.273 201.596 117.684 199.665 115.672C197.622 113.511 196.009 110.979 194.911 108.211C193.661 105.061 193.045 101.693 193.099 98.3023C193.056 94.8751 193.656 91.4704 194.868 88.2659C195.965 85.3831 197.588 82.7307 199.654 80.4445C201.582 78.3117 203.917 76.589 206.521 75.3787C209.023 74.2127 211.748 73.607 214.507 73.6035Z" fill="#021522"/>
<path d="M250.287 67.653C250.282 66.4316 250.525 65.2219 251 64.0974C251.462 62.983 252.139 61.9709 252.992 61.1194C253.862 60.2511 254.902 59.5711 256.045 59.1216C257.257 58.6409 258.55 58.3998 259.853 58.4115C260.149 58.4115 260.461 58.4116 260.783 58.4539C261.105 58.4963 261.448 58.5281 261.802 58.5864V120.781H250.287V67.653Z" fill="#021522"/>
<path d="M304.049 58.5633H315.67C319.429 58.5326 323.149 59.3379 326.561 60.9214C329.875 62.4517 332.844 64.6422 335.287 67.3597C337.804 70.1852 339.774 73.4556 341.098 77.0039C342.536 80.8502 343.252 84.9303 343.211 89.038C343.211 99.2828 340.244 107.132 334.31 112.587C328.377 118.041 319.83 120.765 308.671 120.758H293.686V69.1614C293.686 62.096 297.14 58.5633 304.049 58.5633ZM305.634 69.6913V109.672H312.543C315.183 109.709 317.805 109.212 320.249 108.21C322.506 107.26 324.519 105.811 326.139 103.971C327.82 102.038 329.098 99.7877 329.9 97.3522C330.821 94.5588 331.271 91.6305 331.231 88.6883C331.268 86.0134 330.834 83.3529 329.947 80.8299C329.159 78.5869 327.898 76.5409 326.25 74.8314C324.586 73.1442 322.576 71.8405 320.36 71.0107C317.891 70.0956 315.275 69.6482 312.643 69.6913H305.634Z" fill="#021522"/>
<path d="M374.729 74.0496C377.397 74.0185 380.054 74.3919 382.61 75.1572C384.804 75.8131 386.859 76.8674 388.674 78.2677C390.344 79.5594 391.691 81.2238 392.608 83.1288C393.524 85.0337 393.986 87.1268 393.956 89.242C393.975 91.4018 393.522 93.5396 392.63 95.5054C391.758 97.4173 390.499 99.1263 388.933 100.524C387.286 101.981 385.379 103.112 383.313 103.857C381.056 104.675 378.671 105.082 376.272 105.06C372.49 105.06 369.449 104.215 367.149 102.527C366.055 101.772 365.165 100.754 364.562 99.567C363.959 98.3798 363.661 97.0602 363.695 95.728C363.702 94.3845 363.973 93.0556 364.492 91.8173C365.84 93.019 367.381 93.9814 369.051 94.6629C370.524 95.2828 372.102 95.6138 373.699 95.6379C376.71 95.6379 379.175 95.1345 381.094 94.1277C383.013 93.1208 383.973 91.6707 383.973 89.7772C383.973 88.5902 383.323 87.4827 382.024 86.4441C380.724 85.4055 378.601 84.8862 375.648 84.8862C371.162 84.8862 367.664 85.9972 365.153 88.2193C362.642 90.4413 361.388 93.596 361.392 97.6833C361.392 101.651 362.543 104.789 364.846 107.1C367.149 109.41 370.1 110.565 373.699 110.565C375.592 110.568 377.48 110.367 379.33 109.966C381.221 109.553 383.719 108.954 386.64 110.178C389.561 111.402 391.025 114.852 391.025 114.852C386.774 119.473 381.165 121.783 374.196 121.783C370.82 121.825 367.468 121.22 364.318 120.003C361.442 118.887 358.822 117.196 356.617 115.032C354.445 112.871 352.74 110.285 351.609 107.433C350.412 104.398 349.811 101.159 349.84 97.8953C349.797 94.5595 350.43 91.2498 351.699 88.1663C352.878 85.3258 354.644 82.7684 356.881 80.6629C359.164 78.5435 361.843 76.8975 364.762 75.8195C367.949 74.6256 371.327 74.0258 374.729 74.0496Z" fill="#021522"/>
<path d="M470.293 73.6035C474.185 73.6035 477.298 74.5061 479.632 76.3113C481.967 78.1165 483.134 80.7978 483.134 84.3552C483.191 85.589 482.915 86.8153 482.337 87.9056C481.337 86.4301 479.834 85.3727 478.111 84.9328C476.515 84.4596 474.863 84.2047 473.199 84.1751C471.271 84.1316 469.36 84.5436 467.621 85.3779C466.074 86.1376 464.702 87.2113 463.59 88.5309C462.488 89.8497 461.659 91.3755 461.15 93.0191C460.627 94.6713 460.36 96.394 460.358 98.1274C460.357 99.7849 460.61 101.433 461.108 103.013C461.589 104.556 462.356 105.995 463.369 107.252C464.401 108.517 465.702 109.535 467.177 110.23C468.842 110.997 470.659 111.375 472.491 111.338C474.611 111.422 476.708 110.868 478.512 109.748C480.086 108.705 481.379 107.286 482.273 105.62C483.232 103.831 483.895 101.899 484.238 99.8973C484.618 97.8169 484.811 95.7064 484.814 93.5914V74.7587H496.329V120.781H484.814V115.72C482.841 117.748 480.476 119.35 477.863 120.426C472.861 122.469 467.255 122.438 462.275 120.341C459.706 119.272 457.385 117.683 455.456 115.672C453.402 113.513 451.778 110.981 450.67 108.211C449.421 105.061 448.805 101.693 448.859 98.3023C448.816 94.8751 449.416 91.4704 450.628 88.2659C451.725 85.3831 453.348 82.7307 455.414 80.4445C457.341 78.3117 459.677 76.589 462.281 75.3787C464.791 74.2089 467.526 73.6031 470.293 73.6035Z" fill="#021522"/>
<path d="M505.188 120.781V74.8489H516.592V78.5582C517.434 77.051 518.635 75.7766 520.088 74.8489C521.532 73.9325 523.208 73.4541 524.916 73.4711C527.219 73.4711 529.094 74.0346 530.542 75.1615C531.893 76.1606 532.923 77.5349 533.505 79.1146C534.034 80.596 534.142 82.1959 533.817 83.7353C533.531 85.2423 532.695 86.5879 531.471 87.5082C531.092 86.482 530.352 85.6302 529.39 85.1131C528.398 84.575 527.285 84.2997 526.158 84.313C525.036 84.3239 523.926 84.5338 522.877 84.9329C521.757 85.3472 520.722 85.9651 519.824 86.7558C518.875 87.5987 518.106 88.6263 517.564 89.7762C516.948 91.1024 516.646 92.5531 516.681 94.0155V120.76L505.188 120.781Z" fill="#021522"/>
<path d="M409.274 74.6733C408.088 74.6628 406.907 74.8234 405.766 75.1502C404.677 75.4501 403.671 75.9962 402.825 76.7466C401.979 77.4971 401.316 78.4319 400.886 79.4795C400.354 80.7646 400.1 82.148 400.141 83.5386V104.798C400.124 107.05 400.516 109.285 401.298 111.396C402.008 113.403 403.15 115.23 404.641 116.748C406.132 118.265 407.937 119.435 409.929 120.176C412.184 121.025 414.578 121.44 416.986 121.4C418.276 121.392 419.562 121.241 420.82 120.95C422.139 120.664 423.419 120.223 424.634 119.636C425.786 119.072 426.853 118.348 427.803 117.484C428.701 116.691 429.388 115.686 429.8 114.559C429.8 118.883 428.68 122.1 426.435 124.235C424.19 126.371 420.984 127.452 416.716 127.452C415.208 127.445 413.704 127.305 412.221 127.033C410.743 126.782 409.303 126.341 407.937 125.719C406.581 125.092 405.319 124.279 404.187 123.302C403.02 122.312 402.067 121.093 401.387 119.72C400.845 120.59 400.501 121.569 400.379 122.587C400.289 123.504 400.231 124.415 400.231 125.305C400.193 127.224 400.686 129.115 401.657 130.769C402.619 132.368 403.933 133.725 405.497 134.738C407.248 135.848 409.168 136.664 411.181 137.154C413.385 137.744 415.655 138.045 417.936 138.05C425.611 138.05 431.448 135.983 435.404 131.871C439.361 127.759 441.326 122.2 441.326 115.211V74.8535H429.811V104.29C429.811 104.29 427.787 111.449 419.399 111.396C412.005 111.348 411.783 105.275 411.783 105.275V74.88C411.783 74.88 410.864 74.7316 410.483 74.7051C410.103 74.6786 409.691 74.6733 409.274 74.6733Z" fill="#021522" stroke="#E2222F" stroke-width="0.01" stroke-linejoin="round"/>
<path d="M73.0251 0C72.1166 1.49432 70.1146 2.42695 68.2395 2.42695H64.2885L64.2409 2.86677L67.2887 3.05223L62.107 19.352C60.7442 23.7608 57.6858 33.1295 56.5185 35.7154C55.1557 31.8047 52.4882 17.4338 51.7963 9.15671L55.7737 0.0635857L55.6258 0C54.7173 1.49432 52.7154 2.42695 50.8402 2.42695H41.9293L41.8817 2.86677L49.9 3.05223L45.0299 19.352C43.7252 23.7184 40.9151 33.1295 39.7478 35.6995C38.9185 33.3838 38.4061 28.4346 37.8515 23.0296L37.4448 18.9811C36.5415 8.56321 28.8508 0.100683 19.8131 0.100683C11.2243 0.100683 4.25195 7.43452 4.25195 16.4482C4.25195 24.6245 10.3792 31.2854 17.9273 31.2854C19.5818 31.3155 21.2123 30.8864 22.639 30.0455L21.8942 29.2506C20.5818 30.0273 19.0811 30.4252 17.5576 30.4005C10.5377 30.4005 4.8277 24.1212 4.8277 16.3952C4.8277 8.30357 11.0764 1.73277 18.7672 1.73277C26.2995 1.73277 32.1521 8.66919 33.5571 17.9425L33.7367 19.2301C34.6769 26.4368 35.6647 33.9932 36.8532 36.3831L40.8993 36.0704C40.9996 34.6397 44.1636 26.7283 47.1058 19.7071L49.9 13.2952C50.761 21.4716 52.1555 33.5163 53.5975 36.399L57.6594 36.0704C57.7598 34.6397 60.9396 26.6011 64.1776 19.7071L73.1571 0.0635857L73.0251 0Z" fill="#E2222F"/>
<path d="M84.6406 31.8945C82.2795 33.871 79.8391 35.2011 76.8812 35.2011C75.5326 35.2034 74.2342 34.6882 73.2521 33.7611C72.27 32.834 71.6786 31.5652 71.599 30.2147C78.2439 30.0928 84.1441 27.5334 84.1441 23.9247C84.1441 21.7203 81.2072 19.9346 77.8055 19.9346C76.5209 19.9387 75.2496 20.1967 74.0643 20.6937C72.8791 21.1908 71.803 21.9172 70.8975 22.8314C69.9921 23.7457 69.275 24.8299 68.7872 26.0222C68.2995 27.2144 68.0506 28.4914 68.0547 29.7801C68.0547 33.3888 71.8262 36.3191 76.316 36.3191C79.5803 36.3191 82.1686 34.4062 84.8255 32.0799L84.6406 31.8945ZM71.5409 29.5311C71.5409 24.2957 73.6538 20.8089 77.1294 20.8089C78.0403 20.7958 78.9202 21.1403 79.5814 21.7689C80.2426 22.3976 80.6327 23.2606 80.6684 24.1738C80.6684 27.3532 77.0026 29.7166 71.5409 29.8384V29.5311Z" fill="#E2222F"/>
<path d="M104.972 53.8911C94.6773 53.8911 85.7452 48.7405 81.3452 41.1735L80.6797 41.6557C85.048 49.636 94.1544 55.1311 104.671 55.1311C116.783 55.1311 127.247 48.4172 132.138 38.7041L131.583 38.418C126.771 47.5959 116.656 53.8911 104.972 53.8911Z" fill="#E2222F"/>
<path d="M90.7525 8.93506C90.7525 9.20441 90.7348 9.47347 90.6997 9.7405L88.4918 28.4726C88.1642 30.0728 87.9768 31.6987 87.9319 33.3318C87.9052 33.7257 87.9621 34.1208 88.0988 34.491C88.2355 34.8612 88.4489 35.1982 88.725 35.4796C89.001 35.761 89.3334 35.9805 89.7002 36.1236C90.067 36.2667 90.4598 36.3302 90.8529 36.3098C92.5273 36.3098 95.3849 34.1319 98.0577 32.0706L97.8675 31.8798C95.5698 33.5649 93.0238 35.1228 91.661 35.1228C90.7261 35.1228 90.5412 34.3757 90.5412 32.8813C90.5412 30.2318 92.4322 18.5263 94.0485 10.0214C94.1318 9.58649 94.1743 9.14473 94.1753 8.7019C94.1753 7.0645 93.5573 5.64966 92.3054 5.10916L92.3371 5.00319C93.7422 4.93431 96.9696 4.4097 97.9784 4.24013C102.544 3.38183 107.178 2.94196 111.823 2.92597C121.442 2.92597 129.671 9.12053 132.983 17.8639L133.553 17.5672C130.273 8.14021 121.933 1.43164 112.135 1.43164C106.324 1.43164 101.924 2.49145 98.3482 3.41877C95.7441 4.08115 93.4992 4.62695 91.3494 4.62695H87.6836V4.93959C89.2682 5.15155 90.7525 6.46571 90.7525 8.93506Z" fill="#E2222F"/>
<path d="M107.369 21.1165C109.017 21.1165 110.728 22.3936 112.334 23.7342L112.461 23.7978L114.325 18.6896L114.077 18.626C113.639 19.6858 113.021 20.6184 111.341 20.6184C110.809 20.5839 110.284 20.4732 109.783 20.2899C109.225 20.0909 108.641 19.9714 108.05 19.9348C102.958 19.9348 99.2344 23.8614 99.2344 29.7804C99.2344 33.7017 102.34 36.3194 106.561 36.3194C110.226 36.3194 112.709 34.1998 115.128 32.0802L114.943 31.8894C112.709 33.76 110.348 35.196 107.184 35.196C104.638 35.196 102.647 32.9492 102.647 29.5261C102.647 24.7305 104.944 21.1165 107.369 21.1165Z" fill="#E2222F"/>
<path d="M128.05 19.623C125.378 19.623 123.455 21.2445 123.455 24.0477V24.9221C123.888 24.9221 124.511 24.673 124.511 24.424C124.511 21.7427 125.441 20.4974 127.369 20.4974C130.036 20.4974 132.086 23.1469 132.086 26.729C132.086 31.5246 129.228 35.4512 126.001 35.4512C123.143 35.4512 120.719 33.0826 120.719 29.5322C120.719 27.7888 120.782 26.2309 121.342 24.8585C121.342 24.2968 120.222 23.6768 119.789 23.6768C118.674 25.3566 117.555 27.6617 117.555 29.7813C117.555 33.7025 121.03 36.3203 125.319 36.3203C130.781 36.3203 135.503 31.8956 135.503 26.48C135.503 22.5322 132.334 19.623 128.05 19.623Z" fill="#E2222F"/>
<path d="M167.047 34.4538C166.811 34.4538 166.585 34.36 166.419 34.1931C166.253 34.0261 166.159 33.7997 166.159 33.5636C166.159 32.6098 166.751 30.5008 167.332 28.4501C167.86 26.5053 168.388 24.6083 168.388 23.7975C168.388 21.2434 166.46 19.5 163.666 19.5C160.592 19.5 157.856 22.5151 156.023 26.8074L156.403 24.8573C156.503 24.5134 156.544 24.1551 156.525 23.7975C156.525 21.2434 154.908 19.5 152.114 19.5C148.76 19.5 145.823 23.0927 143.98 28.0155L144.164 19.7491L144.043 19.6855C143.483 20.6817 142.865 21.7415 141.185 21.7415H137.895V22.0541L141.249 22.176V28.4712C140.319 33.9504 140.065 35.0738 139.632 36.1336L142.923 36.0065C142.986 35.4766 143.087 34.6711 143.256 33.4046C144.508 26.5742 147.862 20.7453 151.929 20.7453C152.859 20.7453 153.482 21.8687 153.482 23.4849C153.474 24.0512 153.412 24.6154 153.297 25.17L152.801 28.4712C151.992 33.9504 151.554 35.0738 151.121 36.1336L154.787 36.07C154.863 34.4374 155.039 32.811 155.315 31.2002C156.826 25.3713 159.884 20.7453 163.502 20.7453C164.432 20.7453 165.055 21.8687 165.055 23.4849C165.048 24.0515 164.984 24.616 164.865 25.17L164.368 28.4712C164.051 30.0755 163.857 31.7018 163.787 33.3358C163.787 35.2593 164.395 36.07 166.048 36.07C167.702 36.07 170.459 34.014 173.253 31.8308L173.063 31.7037C170.77 33.394 168.415 34.4538 167.047 34.4538Z" fill="#E2222F"/>
<path d="M195.517 18.1113L195.1 18.5882C196.996 19.648 197.952 21.6564 197.952 23.9403C197.952 30.4845 192.042 35.8207 184.747 35.8207C181.05 35.8207 177.97 33.3513 177.579 30.2143C184.203 30.0765 190.14 27.5277 190.14 23.9244C190.14 21.72 187.203 19.9342 183.802 19.9342C182.517 19.9384 181.246 20.1963 180.06 20.6934C178.875 21.1904 177.799 21.9168 176.894 22.831C175.988 23.7453 175.271 24.8295 174.783 26.0218C174.296 27.214 174.047 28.491 174.051 29.7798C174.051 33.7858 178.842 37.0394 184.742 37.0394C192.374 37.0394 198.581 31.1734 198.581 23.9403C198.607 21.4709 197.551 19.3513 195.517 18.1113ZM177.558 29.5307C177.558 24.2953 179.671 20.8085 183.147 20.8085C184.058 20.7954 184.937 21.1399 185.599 21.7686C186.26 22.3972 186.65 23.2602 186.686 24.1734C186.686 27.3528 183.025 29.7162 177.563 29.8381C177.542 29.7374 177.542 29.6314 177.542 29.5307H177.558Z" fill="#E2222F"/>
<path d="M225.668 35.0109C224.363 35.0109 223.676 34.0783 223.676 32.1494C223.724 30.8927 223.871 29.6418 224.115 28.4083C224.543 26.0643 225.165 23.7601 225.974 21.5196H227.839C233.179 21.5196 237.922 19.3682 239.898 14.9488L239.649 14.8269C237.457 18.7959 233.036 20.5234 228.087 20.5234H226.286C227.157 18.1547 228.958 13.2955 229.767 12.0449H228.768C226.518 12.0449 224.543 12.6914 224.236 14.0374L222.81 20.5181H218.648L218.463 21.5143H222.625L221.442 28.4931C221.204 29.8308 221.059 31.1836 221.009 32.5416C221.009 34.8466 222.498 36.2191 224.611 36.2191C226.972 36.2191 229.767 34.0995 232.313 32.0434L232.122 31.858C229.888 33.5166 227.03 35.0109 225.668 35.0109Z" fill="#E2222F"/>
<path d="M256.964 15.8867C254.894 15.8867 253.214 18.0063 253.214 20.5658L254.27 20.3167C254.27 18.1971 255.48 16.512 256.964 16.512C259.394 16.512 261.364 19.1615 261.364 22.4416C261.364 27.4068 256.991 31.5135 251.328 32.16C252.562 30.5243 253.233 28.5308 253.24 26.4795C253.24 22.5529 250.071 19.6225 245.798 19.6225C244.5 19.6183 243.254 20.1311 242.333 21.0482C241.411 21.9652 240.891 23.2116 240.885 24.5135C240.885 28.5885 244.002 31.9851 248.117 32.7111C246.986 34.3962 245.417 35.4507 243.743 35.4507C240.885 35.4507 238.461 33.082 238.461 29.5317C238.461 27.7883 238.524 26.2304 239.084 24.858C239.084 24.2963 237.964 23.6763 237.531 23.6763C236.411 25.3561 235.297 27.6611 235.297 29.7808C235.297 33.702 238.773 36.3197 243.056 36.3197C244.518 36.3153 245.963 36.001 247.296 35.3973C248.629 34.7937 249.819 33.9144 250.789 32.8171C257.059 32.372 261.998 27.8943 261.998 22.4416C261.993 18.8224 259.737 15.8867 256.964 15.8867ZM248.46 32.1494C244.514 31.5559 241.498 28.3076 241.498 24.3969C241.493 23.9052 241.585 23.4173 241.768 22.9612C241.951 22.5051 242.223 22.0897 242.566 21.7388C242.909 21.3879 243.318 21.1084 243.77 20.9162C244.221 20.724 244.705 20.6229 245.196 20.6188C247.757 20.6188 249.833 23.3584 249.833 26.7285C249.846 28.6237 249.373 30.4903 248.46 32.1494Z" fill="#E2222F"/>
</svg>
